<svg width="358" height="329" viewBox="0 0 358 329" fill="none" xmlns="http://www.w3.org/2000/svg">
<rect x="1.5" y="1.5" width="355" height="326" rx="10.5" stroke="#FFDD00" stroke-width="3"/>
<path d="M148.196 31H140.78C140.62 31 140.54 30.904 140.54 30.712V15.856C140.54 15.664 140.62 15.568 140.78 15.568H148.196C148.388 15.568 148.484 15.656 148.484 15.832V16.384C148.484 16.56 148.388 16.648 148.196 16.648H141.98C141.82 16.648 141.74 16.72 141.74 16.864V22.384C141.74 22.528 141.82 22.6 141.98 22.6H147.524C147.7 22.6 147.788 22.688 147.788 22.864V23.416C147.788 23.592 147.7 23.68 147.524 23.68H141.98C141.82 23.68 141.74 23.752 141.74 23.896V29.704C141.74 29.848 141.82 29.92 141.98 29.92H148.196C148.388 29.92 148.484 30.008 148.484 30.184V30.736C148.484 30.912 148.388 31 148.196 31ZM151.711 31H150.823C150.615 31 150.575 30.904 150.703 30.712L154.183 24.76L150.871 19.048C150.743 18.856 150.783 18.76 150.991 18.76H151.855C152.031 18.76 152.167 18.856 152.263 19.048L154.975 23.944H155.071L157.663 19.048C157.775 18.856 157.911 18.76 158.071 18.76H158.935C159.143 18.76 159.183 18.856 159.055 19.048L155.815 24.712L159.343 30.712C159.455 30.904 159.415 31 159.223 31H158.263C158.135 31 158.023 30.904 157.927 30.712L155.071 25.576H154.975L152.119 30.712C152.007 30.904 151.871 31 151.711 31ZM166.425 31H164.889C163.849 31 163.025 30.696 162.417 30.088C161.825 29.48 161.529 28.648 161.529 27.592V22.168C161.529 21.112 161.825 20.28 162.417 19.672C163.025 19.064 163.849 18.76 164.889 18.76H169.977C170.137 18.76 170.217 18.856 170.217 19.048V30.712C170.217 30.904 170.137 31 169.977 31H169.281C169.105 31 169.017 30.904 169.017 30.712V29.752H168.921C168.505 30.584 167.673 31 166.425 31ZM169.017 27.568V20.056C169.017 19.912 168.937 19.84 168.777 19.84H164.985C164.249 19.84 163.689 20.048 163.305 20.464C162.921 20.88 162.729 21.464 162.729 22.216V27.544C162.729 28.296 162.921 28.88 163.305 29.296C163.689 29.712 164.249 29.92 164.985 29.92H166.545C167.313 29.92 167.913 29.72 168.345 29.32C168.793 28.904 169.017 28.32 169.017 27.568ZM174.752 31H174.056C173.896 31 173.816 30.904 173.816 30.712V19.048C173.816 18.856 173.896 18.76 174.056 18.76H174.752C174.928 18.76 175.016 18.856 175.016 19.048V20.008H175.112C175.576 19.176 176.424 18.76 177.656 18.76H178.64C180.048 18.76 181.024 19.32 181.568 20.44C181.808 19.88 182.216 19.464 182.792 19.192C183.368 18.904 183.96 18.76 184.568 18.76H185.456C186.496 18.76 187.312 19.064 187.904 19.672C188.496 20.28 188.792 21.112 188.792 22.168V30.712C188.792 30.904 188.704 31 188.528 31H187.832C187.656 31 187.568 30.904 187.568 30.712V22.216C187.568 21.448 187.376 20.864 186.992 20.464C186.608 20.048 186.048 19.84 185.312 19.84H184.424C183.656 19.84 183.048 20.064 182.6 20.512C182.152 20.944 181.928 21.536 181.928 22.288V30.712C181.928 30.904 181.84 31 181.664 31H180.968C180.792 31 180.704 30.904 180.704 30.712V22.216C180.704 21.448 180.512 20.864 180.128 20.464C179.744 20.048 179.184 19.84 178.448 19.84H177.488C176.72 19.84 176.112 20.048 175.664 20.464C175.232 20.864 175.016 21.44 175.016 22.192V30.712C175.016 30.904 174.928 31 174.752 31ZM193.197 34.576H192.501C192.341 34.576 192.261 34.488 192.261 34.312V19.048C192.261 18.856 192.341 18.76 192.501 18.76H193.197C193.373 18.76 193.461 18.856 193.461 19.048V20.008H193.557C194.005 19.176 194.837 18.76 196.053 18.76H197.685C198.709 18.76 199.517 19.064 200.109 19.672C200.701 20.28 200.997 21.112 200.997 22.168V27.592C200.997 28.648 200.701 29.48 200.109 30.088C199.517 30.696 198.709 31 197.685 31H196.053C194.837 31 194.005 30.584 193.557 29.752H193.461V34.312C193.461 34.488 193.373 34.576 193.197 34.576ZM195.933 29.92H197.517C198.253 29.92 198.813 29.72 199.197 29.32C199.597 28.904 199.797 28.312 199.797 27.544V22.216C199.797 21.448 199.597 20.864 199.197 20.464C198.813 20.048 198.253 19.84 197.517 19.84H195.933C195.165 19.84 194.557 20.048 194.109 20.464C193.677 20.864 193.461 21.44 193.461 22.192V27.568C193.461 28.32 193.677 28.904 194.109 29.32C194.557 29.72 195.165 29.92 195.933 29.92ZM205.411 31H204.715C204.555 31 204.475 30.904 204.475 30.712V14.416C204.475 14.224 204.555 14.128 204.715 14.128H205.411C205.587 14.128 205.675 14.224 205.675 14.416V30.712C205.675 30.904 205.587 31 205.411 31ZM217.53 31H212.514C211.474 31 210.65 30.696 210.042 30.088C209.45 29.48 209.154 28.648 209.154 27.592V22.168C209.154 21.112 209.45 20.28 210.042 19.672C210.65 19.064 211.474 18.76 212.514 18.76H214.578C215.618 18.76 216.442 19.064 217.05 19.672C217.658 20.28 217.962 21.112 217.962 22.168V25.216C217.962 25.408 217.866 25.504 217.674 25.504H210.57C210.426 25.504 210.354 25.576 210.354 25.72V27.568C210.354 28.32 210.546 28.904 210.93 29.32C211.314 29.72 211.874 29.92 212.61 29.92H217.53C217.706 29.92 217.794 30.008 217.794 30.184V30.736C217.794 30.912 217.706 31 217.53 31ZM210.57 24.544H216.546C216.69 24.544 216.762 24.472 216.762 24.328V22.192C216.762 21.44 216.57 20.864 216.186 20.464C215.802 20.048 215.242 19.84 214.506 19.84H212.61C211.874 19.84 211.314 20.048 210.93 20.464C210.546 20.864 210.354 21.44 210.354 22.192V24.328C210.354 24.472 210.426 24.544 210.57 24.544Z" fill="#FFDD00"/>
<path d="M15.776 78H13.16C12.12 78 11.296 77.696 10.688 77.088C10.096 76.48 9.8 75.648 9.8 74.592V65.976C9.8 64.92 10.096 64.088 10.688 63.48C11.296 62.872 12.12 62.568 13.16 62.568H15.776C16.816 62.568 17.64 62.872 18.248 63.48C18.856 64.088 19.16 64.92 19.16 65.976V67.056C19.16 67.248 19.072 67.344 18.896 67.344H18.2C18.024 67.344 17.936 67.248 17.936 67.056V66.024C17.936 65.256 17.744 64.672 17.36 64.272C16.976 63.856 16.416 63.648 15.68 63.648H13.256C12.52 63.648 11.96 63.856 11.576 64.272C11.192 64.688 11 65.272 11 66.024V74.544C11 75.296 11.192 75.88 11.576 76.296C11.96 76.712 12.52 76.92 13.256 76.92H15.68C16.416 76.92 16.976 76.72 17.36 76.32C17.744 75.904 17.936 75.312 17.936 74.544V71.376C17.936 71.232 17.864 71.16 17.72 71.16H14.96C14.784 71.16 14.696 71.072 14.696 70.896V70.344C14.696 70.168 14.784 70.08 14.96 70.08H18.704C19.008 70.08 19.16 70.24 19.16 70.56V74.592C19.16 75.648 18.856 76.48 18.248 77.088C17.64 77.696 16.816 78 15.776 78ZM23.6735 78H22.9775C22.8175 78 22.7375 77.904 22.7375 77.712V66.048C22.7375 65.856 22.8175 65.76 22.9775 65.76H23.6735C23.8495 65.76 23.9375 65.856 23.9375 66.048V67.056H24.0335C24.2095 66.72 24.5215 66.424 24.9695 66.168C25.4175 65.896 25.9695 65.76 26.6255 65.76H27.5615C27.7375 65.76 27.8255 65.848 27.8255 66.024V66.6C27.8255 66.776 27.7375 66.856 27.5615 66.84H26.4335C25.6495 66.84 25.0335 67.08 24.5855 67.56C24.1535 68.04 23.9375 68.688 23.9375 69.504V77.712C23.9375 77.904 23.8495 78 23.6735 78ZM35.4449 78H33.3809C32.3409 78 31.5169 77.696 30.9089 77.088C30.3169 76.48 30.0209 75.648 30.0209 74.592V69.168C30.0209 68.112 30.3169 67.28 30.9089 66.672C31.5169 66.064 32.3409 65.76 33.3809 65.76H35.4449C36.4849 65.76 37.3089 66.064 37.9169 66.672C38.5249 67.28 38.8289 68.112 38.8289 69.168V74.592C38.8289 75.648 38.5249 76.48 37.9169 77.088C37.3089 77.696 36.4849 78 35.4449 78ZM33.4769 76.92H35.3489C36.0849 76.92 36.6449 76.72 37.0289 76.32C37.4289 75.904 37.6289 75.32 37.6289 74.568V69.192C37.6289 68.44 37.4289 67.864 37.0289 67.464C36.6449 67.048 36.0849 66.84 35.3489 66.84H33.4769C32.7409 66.84 32.1809 67.048 31.7969 67.464C31.4129 67.864 31.2209 68.44 31.2209 69.192V74.568C31.2209 75.32 31.4129 75.904 31.7969 76.32C32.1809 76.72 32.7409 76.92 33.4769 76.92ZM46.9432 78H45.3592C44.3352 78 43.5272 77.696 42.9352 77.088C42.3432 76.48 42.0472 75.648 42.0472 74.592V66.048C42.0472 65.856 42.1272 65.76 42.2872 65.76H42.9832C43.1592 65.76 43.2472 65.856 43.2472 66.048V74.544C43.2472 75.296 43.4392 75.88 43.8232 76.296C44.2072 76.712 44.7672 76.92 45.5032 76.92H47.0632C47.8312 76.92 48.4312 76.72 48.8632 76.32C49.3112 75.904 49.5352 75.32 49.5352 74.568V66.048C49.5352 65.856 49.6232 65.76 49.7992 65.76H50.4952C50.6552 65.76 50.7352 65.856 50.7352 66.048V77.712C50.7352 77.904 50.6552 78 50.4952 78H49.7992C49.6232 78 49.5352 77.904 49.5352 77.712V76.752H49.4392C49.0232 77.584 48.1912 78 46.9432 78ZM55.2673 81.576H54.5713C54.4113 81.576 54.3313 81.488 54.3313 81.312V66.048C54.3313 65.856 54.4113 65.76 54.5713 65.76H55.2673C55.4433 65.76 55.5312 65.856 55.5312 66.048V67.008H55.6273C56.0753 66.176 56.9073 65.76 58.1233 65.76H59.7553C60.7793 65.76 61.5873 66.064 62.1793 66.672C62.7713 67.28 63.0673 68.112 63.0673 69.168V74.592C63.0673 75.648 62.7713 76.48 62.1793 77.088C61.5873 77.696 60.7793 78 59.7553 78H58.1233C56.9073 78 56.0753 77.584 55.6273 76.752H55.5312V81.312C55.5312 81.488 55.4433 81.576 55.2673 81.576ZM58.0033 76.92H59.5872C60.3233 76.92 60.8833 76.72 61.2673 76.32C61.6673 75.904 61.8673 75.312 61.8673 74.544V69.216C61.8673 68.448 61.6673 67.864 61.2673 67.464C60.8833 67.048 60.3233 66.84 59.5872 66.84H58.0033C57.2353 66.84 56.6273 67.048 56.1793 67.464C55.7473 67.864 55.5312 68.44 55.5312 69.192V74.568C55.5312 75.32 55.7473 75.904 56.1793 76.32C56.6273 76.72 57.2353 76.92 58.0033 76.92ZM72.9674 74.592V73.728C72.9674 73.552 73.0554 73.464 73.2314 73.464H73.9274C74.1034 73.464 74.1914 73.552 74.1914 73.728V74.52C74.1914 76.12 74.9674 76.92 76.5194 76.92H79.0154C80.5674 76.92 81.3434 76.112 81.3434 74.496V73.488C81.3434 72.784 81.0554 72.232 80.4794 71.832C79.9034 71.432 79.2074 71.144 78.3914 70.968C77.5754 70.792 76.7514 70.608 75.9194 70.416C75.1034 70.224 74.4074 69.872 73.8314 69.36C73.2554 68.848 72.9674 68.16 72.9674 67.296V65.976C72.9674 64.92 73.2714 64.088 73.8794 63.48C74.4874 62.872 75.3114 62.568 76.3514 62.568H79.1354C80.1754 62.568 80.9994 62.872 81.6074 63.48C82.2154 64.088 82.5194 64.92 82.5194 65.976V66.648C82.5194 66.824 82.4314 66.912 82.2554 66.912H81.5594C81.3834 66.912 81.2954 66.824 81.2954 66.648V66.048C81.2954 64.448 80.5194 63.648 78.9674 63.648H76.4954C74.9594 63.648 74.1914 64.464 74.1914 66.096V67.296C74.1914 68.4 75.1754 69.144 77.1434 69.528C77.9594 69.688 78.7754 69.872 79.5914 70.08C80.4234 70.288 81.1274 70.664 81.7034 71.208C82.2794 71.752 82.5674 72.488 82.5674 73.416V74.592C82.5674 75.648 82.2634 76.48 81.6554 77.088C81.0474 77.696 80.2234 78 79.1834 78H76.3514C75.3114 78 74.4874 77.696 73.8794 77.088C73.2714 76.48 72.9674 75.648 72.9674 74.592ZM86.828 66.84H85.364C85.188 66.84 85.1 66.76 85.1 66.6V66.024C85.1 65.848 85.188 65.76 85.364 65.76H86.828C86.972 65.76 87.044 65.688 87.044 65.544V63.6C87.044 63.408 87.132 63.312 87.308 63.312H88.004C88.18 63.312 88.268 63.408 88.268 63.6V65.544C88.268 65.688 88.34 65.76 88.484 65.76H91.34C91.516 65.76 91.604 65.848 91.604 66.024V66.6C91.604 66.76 91.516 66.84 91.34 66.84H88.484C88.34 66.84 88.268 66.912 88.268 67.056V74.616C88.268 75.352 88.476 75.92 88.892 76.32C89.308 76.72 89.892 76.92 90.644 76.92H91.58C91.756 76.92 91.844 77.008 91.844 77.184V77.736C91.844 77.912 91.756 78 91.58 78H90.548C89.492 78 88.644 77.704 88.004 77.112C87.364 76.52 87.044 75.704 87.044 74.664V67.056C87.044 66.912 86.972 66.84 86.828 66.84ZM99.2763 78H97.7403C96.7003 78 95.8763 77.696 95.2683 77.088C94.6763 76.48 94.3803 75.648 94.3803 74.592V69.168C94.3803 68.112 94.6763 67.28 95.2683 66.672C95.8763 66.064 96.7003 65.76 97.7403 65.76H102.828C102.988 65.76 103.068 65.856 103.068 66.048V77.712C103.068 77.904 102.988 78 102.828 78H102.132C101.956 78 101.868 77.904 101.868 77.712V76.752H101.772C101.356 77.584 100.524 78 99.2763 78ZM101.868 74.568V67.056C101.868 66.912 101.788 66.84 101.628 66.84H97.8363C97.1003 66.84 96.5403 67.048 96.1563 67.464C95.7723 67.88 95.5803 68.464 95.5803 69.216V74.544C95.5803 75.296 95.7723 75.88 96.1563 76.296C96.5403 76.712 97.1003 76.92 97.8363 76.92H99.3963C100.164 76.92 100.764 76.72 101.196 76.32C101.644 75.904 101.868 75.32 101.868 74.568ZM110.627 78H106.451C106.275 78 106.187 77.912 106.187 77.736V77.184C106.187 77.024 106.275 76.944 106.451 76.944H110.507C111.947 76.944 112.667 76.384 112.667 75.264V74.688C112.667 73.648 112.219 72.968 111.323 72.648L108.323 71.496C107.507 71.176 106.923 70.8 106.571 70.368C106.235 69.936 106.067 69.336 106.067 68.568C106.067 66.696 107.099 65.76 109.163 65.76H113.051C113.227 65.76 113.315 65.848 113.315 66.024V66.576C113.315 66.736 113.227 66.816 113.051 66.816H109.283C108.627 66.816 108.131 66.96 107.795 67.248C107.475 67.536 107.315 67.872 107.315 68.256V68.808C107.315 69.256 107.435 69.608 107.675 69.864C107.931 70.12 108.315 70.336 108.827 70.512L111.827 71.712C112.659 71.984 113.211 72.392 113.483 72.936C113.771 73.464 113.915 74.208 113.915 75.168C113.915 76.128 113.643 76.84 113.099 77.304C112.571 77.768 111.747 78 110.627 78ZM117.939 78H117.243C117.083 78 117.003 77.904 117.003 77.712V61.416C117.003 61.224 117.083 61.128 117.243 61.128H117.939C118.115 61.128 118.203 61.224 118.203 61.416V67.008H118.299C118.747 66.176 119.579 65.76 120.795 65.76H122.379C123.403 65.76 124.211 66.064 124.803 66.672C125.395 67.28 125.691 68.112 125.691 69.168V77.712C125.691 77.904 125.611 78 125.451 78H124.755C124.579 78 124.491 77.904 124.491 77.712V69.216C124.491 68.464 124.299 67.88 123.915 67.464C123.531 67.048 122.971 66.84 122.235 66.84H120.675C119.907 66.84 119.299 67.048 118.851 67.464C118.419 67.864 118.203 68.44 118.203 69.192V77.712C118.203 77.904 118.115 78 117.939 78ZM137.006 76.92H140.822C141.558 76.92 142.118 76.72 142.502 76.32C142.902 75.904 143.102 75.312 143.102 74.544V69C143.102 68.248 142.902 67.672 142.502 67.272C142.118 66.856 141.558 66.648 140.822 66.648H139.238C138.47 66.648 137.862 66.856 137.414 67.272C136.982 67.672 136.766 68.248 136.766 69V76.704C136.766 76.848 136.846 76.92 137.006 76.92ZM135.566 77.712V61.416C135.566 61.224 135.646 61.128 135.806 61.128H136.502C136.678 61.128 136.766 61.224 136.766 61.416V66.816H136.862C137.31 65.984 138.142 65.568 139.358 65.568H140.942C141.982 65.568 142.798 65.872 143.39 66.48C143.998 67.088 144.302 67.912 144.302 68.952V74.592C144.302 75.648 143.998 76.48 143.39 77.088C142.798 77.696 141.982 78 140.942 78H135.806C135.646 78 135.566 77.904 135.566 77.712ZM155.795 78H150.779C149.739 78 148.915 77.696 148.307 77.088C147.715 76.48 147.419 75.648 147.419 74.592V69.168C147.419 68.112 147.715 67.28 148.307 66.672C148.915 66.064 149.739 65.76 150.779 65.76H152.843C153.883 65.76 154.707 66.064 155.315 66.672C155.923 67.28 156.227 68.112 156.227 69.168V72.216C156.227 72.408 156.131 72.504 155.939 72.504H148.835C148.691 72.504 148.619 72.576 148.619 72.72V74.568C148.619 75.32 148.811 75.904 149.195 76.32C149.579 76.72 150.139 76.92 150.875 76.92H155.795C155.971 76.92 156.059 77.008 156.059 77.184V77.736C156.059 77.912 155.971 78 155.795 78ZM148.835 71.544H154.811C154.955 71.544 155.027 71.472 155.027 71.328V69.192C155.027 68.44 154.835 67.864 154.451 67.464C154.067 67.048 153.507 66.84 152.771 66.84H150.875C150.139 66.84 149.579 67.048 149.195 67.464C148.811 67.864 148.619 68.44 148.619 69.192V71.328C148.619 71.472 148.691 71.544 148.835 71.544ZM161.992 65.76H164.176C164.368 65.76 164.464 65.848 164.464 66.024V66.576C164.464 66.752 164.368 66.84 164.176 66.84H161.992C161.848 66.84 161.776 66.912 161.776 67.056V77.712C161.776 77.904 161.688 78 161.512 78H160.816C160.64 78 160.552 77.904 160.552 77.712V67.056C160.552 66.912 160.48 66.84 160.336 66.84H158.8C158.624 66.84 158.536 66.752 158.536 66.576V66.024C158.536 65.848 158.624 65.76 158.8 65.76H160.336C160.48 65.76 160.552 65.688 160.552 65.544V64.488C160.552 62.248 161.568 61.128 163.6 61.128H164.176C164.368 61.128 164.464 61.216 164.464 61.392V61.944C164.464 62.12 164.368 62.208 164.176 62.208H163.72C163 62.208 162.496 62.4 162.208 62.784C161.92 63.168 161.776 63.752 161.776 64.536V65.544C161.776 65.688 161.848 65.76 161.992 65.76ZM171.922 78H169.858C168.818 78 167.994 77.696 167.386 77.088C166.794 76.48 166.498 75.648 166.498 74.592V69.168C166.498 68.112 166.794 67.28 167.386 66.672C167.994 66.064 168.818 65.76 169.858 65.76H171.922C172.962 65.76 173.786 66.064 174.394 66.672C175.002 67.28 175.306 68.112 175.306 69.168V74.592C175.306 75.648 175.002 76.48 174.394 77.088C173.786 77.696 172.962 78 171.922 78ZM169.954 76.92H171.826C172.562 76.92 173.122 76.72 173.506 76.32C173.906 75.904 174.106 75.32 174.106 74.568V69.192C174.106 68.44 173.906 67.864 173.506 67.464C173.122 67.048 172.562 66.84 171.826 66.84H169.954C169.218 66.84 168.658 67.048 168.274 67.464C167.89 67.864 167.698 68.44 167.698 69.192V74.568C167.698 75.32 167.89 75.904 168.274 76.32C168.658 76.72 169.218 76.92 169.954 76.92ZM179.58 78H178.884C178.724 78 178.644 77.904 178.644 77.712V66.048C178.644 65.856 178.724 65.76 178.884 65.76H179.58C179.756 65.76 179.844 65.856 179.844 66.048V67.056H179.94C180.116 66.72 180.428 66.424 180.876 66.168C181.324 65.896 181.876 65.76 182.532 65.76H183.468C183.644 65.76 183.732 65.848 183.732 66.024V66.6C183.732 66.776 183.644 66.856 183.468 66.84H182.34C181.556 66.84 180.94 67.08 180.492 67.56C180.06 68.04 179.844 68.688 179.844 69.504V77.712C179.844 77.904 179.756 78 179.58 78ZM194.303 78H189.287C188.247 78 187.423 77.696 186.815 77.088C186.223 76.48 185.927 75.648 185.927 74.592V69.168C185.927 68.112 186.223 67.28 186.815 66.672C187.423 66.064 188.247 65.76 189.287 65.76H191.351C192.391 65.76 193.215 66.064 193.823 66.672C194.431 67.28 194.735 68.112 194.735 69.168V72.216C194.735 72.408 194.639 72.504 194.447 72.504H187.343C187.199 72.504 187.127 72.576 187.127 72.72V74.568C187.127 75.32 187.319 75.904 187.703 76.32C188.087 76.72 188.647 76.92 189.383 76.92H194.303C194.479 76.92 194.567 77.008 194.567 77.184V77.736C194.567 77.912 194.479 78 194.303 78ZM187.343 71.544H193.319C193.463 71.544 193.535 71.472 193.535 71.328V69.192C193.535 68.44 193.343 67.864 192.959 67.464C192.575 67.048 192.015 66.84 191.279 66.84H189.383C188.647 66.84 188.087 67.048 187.703 67.464C187.319 67.864 187.127 68.44 187.127 69.192V71.328C187.127 71.472 187.199 71.544 187.343 71.544ZM10.736 112.576H10.04C9.88 112.576 9.8 112.488 9.8 112.312V97.048C9.8 96.856 9.88 96.76 10.04 96.76H10.736C10.912 96.76 11 96.856 11 97.048V98.008H11.096C11.544 97.176 12.376 96.76 13.592 96.76H15.224C16.248 96.76 17.056 97.064 17.648 97.672C18.24 98.28 18.536 99.112 18.536 100.168V105.592C18.536 106.648 18.24 107.48 17.648 108.088C17.056 108.696 16.248 109 15.224 109H13.592C12.376 109 11.544 108.584 11.096 107.752H11V112.312C11 112.488 10.912 112.576 10.736 112.576ZM13.472 107.92H15.056C15.792 107.92 16.352 107.72 16.736 107.32C17.136 106.904 17.336 106.312 17.336 105.544V100.216C17.336 99.448 17.136 98.864 16.736 98.464C16.352 98.048 15.792 97.84 15.056 97.84H13.472C12.704 97.84 12.096 98.048 11.648 98.464C11.216 98.864 11 99.44 11 100.192V105.568C11 106.32 11.216 106.904 11.648 107.32C12.096 107.72 12.704 107.92 13.472 107.92ZM22.9498 109H22.2538C22.0938 109 22.0138 108.904 22.0138 108.712V92.416C22.0138 92.224 22.0938 92.128 22.2538 92.128H22.9498C23.1258 92.128 23.2138 92.224 23.2138 92.416V108.712C23.2138 108.904 23.1258 109 22.9498 109ZM31.5888 109H30.0528C29.0128 109 28.1888 108.696 27.5808 108.088C26.9888 107.48 26.6928 106.648 26.6928 105.592V100.168C26.6928 99.112 26.9888 98.28 27.5808 97.672C28.1888 97.064 29.0128 96.76 30.0528 96.76H35.1408C35.3008 96.76 35.3808 96.856 35.3808 97.048V108.712C35.3808 108.904 35.3008 109 35.1408 109H34.4448C34.2688 109 34.1808 108.904 34.1808 108.712V107.752H34.0848C33.6688 108.584 32.8368 109 31.5888 109ZM34.1808 105.568V98.056C34.1808 97.912 34.1008 97.84 33.9408 97.84H30.1488C29.4128 97.84 28.8528 98.048 28.4688 98.464C28.0848 98.88 27.8928 99.464 27.8928 100.216V105.544C27.8928 106.296 28.0848 106.88 28.4688 107.296C28.8528 107.712 29.4128 107.92 30.1488 107.92H31.7088C32.4768 107.92 33.0768 107.72 33.5088 107.32C33.9568 106.904 34.1808 106.32 34.1808 105.568ZM39.5557 112.648H38.6677C38.4917 112.648 38.4037 112.56 38.4037 112.384V111.808C38.4037 111.632 38.4917 111.544 38.6677 111.544H39.3157C39.7957 111.544 40.2037 111.472 40.5397 111.328C40.8757 111.2 41.1717 110.952 41.4277 110.584C41.6837 110.216 41.8517 109.928 41.9317 109.72C42.1557 109.224 42.3397 108.768 42.4837 108.352H42.0277C41.8517 108.352 41.7397 108.256 41.6917 108.064L37.8757 97.048C37.8117 96.856 37.8757 96.76 38.0677 96.76H38.8117C38.9717 96.76 39.0757 96.856 39.1237 97.048L42.6517 107.344H42.7477L46.2757 97.048C46.3237 96.856 46.4277 96.76 46.5877 96.76H47.3077C47.4997 96.76 47.5717 96.856 47.5237 97.048C44.6597 105.432 43.1637 109.768 43.0357 110.056C42.9237 110.344 42.7077 110.736 42.3877 111.232C41.7797 112.176 40.8357 112.648 39.5557 112.648ZM58.1313 109H53.1153C52.0753 109 51.2513 108.696 50.6433 108.088C50.0513 107.48 49.7553 106.648 49.7553 105.592V100.168C49.7553 99.112 50.0513 98.28 50.6433 97.672C51.2513 97.064 52.0753 96.76 53.1153 96.76H55.1793C56.2193 96.76 57.0433 97.064 57.6513 97.672C58.2593 98.28 58.5633 99.112 58.5633 100.168V103.216C58.5633 103.408 58.4673 103.504 58.2753 103.504H51.1713C51.0273 103.504 50.9553 103.576 50.9553 103.72V105.568C50.9553 106.32 51.1473 106.904 51.5313 107.32C51.9153 107.72 52.4753 107.92 53.2113 107.92H58.1313C58.3073 107.92 58.3953 108.008 58.3953 108.184V108.736C58.3953 108.912 58.3073 109 58.1313 109ZM51.1713 102.544H57.1473C57.2913 102.544 57.3633 102.472 57.3633 102.328V100.192C57.3633 99.44 57.1713 98.864 56.7873 98.464C56.4033 98.048 55.8433 97.84 55.1073 97.84H53.2113C52.4753 97.84 51.9153 98.048 51.5313 98.464C51.1473 98.864 50.9553 99.44 50.9553 100.192V102.328C50.9553 102.472 51.0273 102.544 51.1713 102.544ZM62.7438 109H62.0478C61.8878 109 61.8078 108.904 61.8078 108.712V97.048C61.8078 96.856 61.8878 96.76 62.0478 96.76H62.7438C62.9198 96.76 63.0078 96.856 63.0078 97.048V98.056H63.1038C63.2798 97.72 63.5918 97.424 64.0398 97.168C64.4878 96.896 65.0398 96.76 65.6958 96.76H66.6318C66.8078 96.76 66.8958 96.848 66.8958 97.024V97.6C66.8958 97.776 66.8078 97.856 66.6318 97.84H65.5038C64.7198 97.84 64.1038 98.08 63.6558 98.56C63.2238 99.04 63.0078 99.688 63.0078 100.504V108.712C63.0078 108.904 62.9198 109 62.7438 109ZM76.6657 109H75.9697C75.8097 109 75.7297 108.904 75.7297 108.712V97.048C75.7297 96.856 75.8097 96.76 75.9697 96.76H76.6657C76.8417 96.76 76.9297 96.856 76.9297 97.048V98.056H77.0257C77.2017 97.72 77.5137 97.424 77.9617 97.168C78.4097 96.896 78.9617 96.76 79.6177 96.76H80.5537C80.7297 96.76 80.8177 96.848 80.8177 97.024V97.6C80.8177 97.776 80.7297 97.856 80.5537 97.84H79.4257C78.6417 97.84 78.0257 98.08 77.5777 98.56C77.1457 99.04 76.9297 99.688 76.9297 100.504V108.712C76.9297 108.904 76.8417 109 76.6657 109ZM88.4371 109H86.3731C85.3331 109 84.5091 108.696 83.9011 108.088C83.3091 107.48 83.0131 106.648 83.0131 105.592V100.168C83.0131 99.112 83.3091 98.28 83.9011 97.672C84.5091 97.064 85.3331 96.76 86.3731 96.76H88.4371C89.4771 96.76 90.3011 97.064 90.9091 97.672C91.5171 98.28 91.8211 99.112 91.8211 100.168V105.592C91.8211 106.648 91.5171 107.48 90.9091 108.088C90.3011 108.696 89.4771 109 88.4371 109ZM86.4691 107.92H88.3411C89.0771 107.92 89.6371 107.72 90.0211 107.32C90.4211 106.904 90.6211 106.32 90.6211 105.568V100.192C90.6211 99.44 90.4211 98.864 90.0211 98.464C89.6371 98.048 89.0771 97.84 88.3411 97.84H86.4691C85.7331 97.84 85.1731 98.048 84.7891 98.464C84.4051 98.864 84.2131 99.44 84.2131 100.192V105.568C84.2131 106.32 84.4051 106.904 84.7891 107.32C85.1731 107.72 85.7331 107.92 86.4691 107.92ZM96.2154 109H95.5194C95.3594 109 95.2794 108.904 95.2794 108.712V92.416C95.2794 92.224 95.3594 92.128 95.5194 92.128H96.2154C96.3914 92.128 96.4794 92.224 96.4794 92.416V108.712C96.4794 108.904 96.3914 109 96.2154 109ZM101.254 109H100.558C100.398 109 100.318 108.904 100.318 108.712V92.416C100.318 92.224 100.398 92.128 100.558 92.128H101.254C101.43 92.128 101.518 92.224 101.518 92.416V108.712C101.518 108.904 101.43 109 101.254 109ZM106.39 97.024V99.904C106.39 100.08 106.31 100.168 106.15 100.168H105.31C105.134 100.168 105.046 100.08 105.046 99.904V97.024C105.046 96.848 105.134 96.76 105.31 96.76H106.15C106.31 96.76 106.39 96.848 106.39 97.024ZM106.39 105.856V108.712C106.39 108.904 106.31 109 106.15 109H105.31C105.134 109 105.046 108.904 105.046 108.712V105.856C105.046 105.68 105.134 105.592 105.31 105.592H106.15C106.31 105.592 106.39 105.68 106.39 105.856Z" fill="#FFDD00"/>
<path d="M264.632 88.052V80.636L260.744 88.052H264.632ZM267.008 93.5H265.136C264.8 93.5 264.632 93.332 264.632 92.996V90.692H258.68C258.408 90.692 258.192 90.612 258.032 90.452C257.872 90.292 257.792 90.076 257.792 89.804V88.868C257.792 88.388 257.872 87.996 258.032 87.692L262.808 78.812C262.968 78.524 263.112 78.332 263.24 78.236C263.384 78.124 263.592 78.068 263.864 78.068H266.576C266.848 78.068 267.064 78.148 267.224 78.308C267.4 78.468 267.488 78.684 267.488 78.956V88.052H269.216C269.536 88.052 269.696 88.212 269.696 88.532V90.14C269.696 90.508 269.536 90.692 269.216 90.692H267.488V92.996C267.488 93.188 267.448 93.324 267.368 93.404C267.304 93.468 267.184 93.5 267.008 93.5ZM271.112 92.996V90.716C271.112 89.804 271.504 89.028 272.288 88.388L276.704 84.644C277.424 84.052 277.784 83.412 277.784 82.724V82.004C277.784 81.508 277.664 81.156 277.424 80.948C277.2 80.724 276.824 80.612 276.296 80.612H275.456C274.944 80.612 274.584 80.724 274.376 80.948C274.168 81.156 274.064 81.508 274.064 82.004V82.772C274.064 83.124 273.896 83.3 273.56 83.3H271.52C271.184 83.3 271.016 83.124 271.016 82.772V81.956C271.016 80.708 271.36 79.748 272.048 79.076C272.736 78.404 273.712 78.068 274.976 78.068H276.8C278.064 78.068 279.04 78.404 279.728 79.076C280.416 79.748 280.76 80.708 280.76 81.956V82.916C280.76 84.164 280.28 85.196 279.32 86.012L274.808 89.852C274.616 90.028 274.52 90.22 274.52 90.428V90.812H280.256C280.592 90.812 280.76 90.98 280.76 91.316V92.996C280.76 93.332 280.592 93.5 280.256 93.5H271.616C271.28 93.5 271.112 93.332 271.112 92.996ZM290.958 96.764H288.918C288.582 96.764 288.414 96.604 288.414 96.284V81.764C288.414 81.428 288.582 81.26 288.918 81.26H290.958C291.294 81.26 291.462 81.428 291.462 81.764V82.556H291.558C291.734 82.124 292.046 81.804 292.494 81.596C292.942 81.372 293.414 81.26 293.91 81.26H294.894C296.126 81.26 297.054 81.596 297.678 82.268C298.318 82.94 298.638 83.908 298.638 85.172V89.588C298.638 90.852 298.318 91.82 297.678 92.492C297.054 93.164 296.126 93.5 294.894 93.5H293.91C293.414 93.5 292.942 93.396 292.494 93.188C292.046 92.964 291.734 92.636 291.558 92.204H291.462V96.284C291.462 96.604 291.294 96.764 290.958 96.764ZM293.118 90.86H294.174C294.686 90.86 295.046 90.756 295.254 90.548C295.478 90.324 295.59 89.956 295.59 89.444V85.316C295.59 84.804 295.478 84.444 295.254 84.236C295.046 84.012 294.686 83.9 294.174 83.9H293.118C292.014 83.9 291.462 84.508 291.462 85.724V89.036C291.462 90.252 292.014 90.86 293.118 90.86ZM306.903 93.5H304.767C303.503 93.5 302.527 93.164 301.839 92.492C301.151 91.82 300.807 90.852 300.807 89.588V85.172C300.807 83.908 301.151 82.94 301.839 82.268C302.527 81.596 303.503 81.26 304.767 81.26H306.903C308.151 81.26 309.119 81.604 309.807 82.292C310.511 82.964 310.863 83.924 310.863 85.172V89.588C310.863 90.836 310.511 91.804 309.807 92.492C309.119 93.164 308.151 93.5 306.903 93.5ZM305.223 90.884H306.447C306.959 90.884 307.319 90.78 307.527 90.572C307.751 90.364 307.863 90.004 307.863 89.492V85.268C307.863 84.756 307.751 84.396 307.527 84.188C307.319 83.98 306.959 83.876 306.447 83.876H305.223C304.711 83.876 304.351 83.98 304.143 84.188C303.935 84.396 303.831 84.756 303.831 85.268V89.492C303.831 90.004 303.935 90.364 304.143 90.572C304.351 90.78 304.711 90.884 305.223 90.884ZM313.378 79.196V77.108C313.378 76.788 313.538 76.628 313.858 76.628H315.946C316.266 76.628 316.426 76.78 316.426 77.084V79.196C316.426 79.516 316.266 79.676 315.946 79.676H313.858C313.538 79.676 313.378 79.516 313.378 79.196ZM313.378 92.996V81.764C313.378 81.428 313.538 81.26 313.858 81.26H315.922C316.258 81.26 316.426 81.428 316.426 81.764V92.996C316.426 93.204 316.386 93.34 316.306 93.404C316.242 93.468 316.122 93.5 315.946 93.5H313.882C313.546 93.5 313.378 93.332 313.378 92.996ZM321.731 93.5H319.691C319.355 93.5 319.187 93.332 319.187 92.996V81.764C319.187 81.428 319.355 81.26 319.691 81.26H321.731C322.067 81.26 322.235 81.428 322.235 81.764V82.556H322.331C322.683 81.692 323.467 81.26 324.683 81.26H325.451C327.963 81.26 329.219 82.564 329.219 85.172V92.996C329.219 93.332 329.043 93.5 328.691 93.5H326.675C326.339 93.5 326.171 93.332 326.171 92.996V85.316C326.171 84.804 326.059 84.444 325.835 84.236C325.627 84.012 325.267 83.9 324.755 83.9H323.891C322.787 83.9 322.235 84.508 322.235 85.724V92.996C322.235 93.332 322.067 93.5 321.731 93.5ZM332.014 83.9H331.054C330.862 83.9 330.726 83.868 330.646 83.804C330.582 83.74 330.55 83.612 330.55 83.42V81.764C330.55 81.428 330.718 81.26 331.054 81.26H332.014C332.19 81.26 332.278 81.172 332.278 80.996V78.716C332.278 78.38 332.454 78.212 332.806 78.212H334.822C335.158 78.212 335.326 78.38 335.326 78.716V80.996C335.326 81.172 335.422 81.26 335.614 81.26H337.486C337.822 81.26 337.99 81.428 337.99 81.764V83.42C337.99 83.596 337.95 83.724 337.87 83.804C337.806 83.868 337.678 83.9 337.486 83.9H335.614C335.422 83.9 335.326 83.988 335.326 84.164V89.468C335.326 89.964 335.438 90.324 335.662 90.548C335.886 90.756 336.254 90.86 336.766 90.86H337.726C338.062 90.86 338.23 91.028 338.23 91.364V93.02C338.23 93.196 338.19 93.324 338.11 93.404C338.046 93.468 337.918 93.5 337.726 93.5H336.262C334.998 93.5 334.014 93.164 333.31 92.492C332.622 91.82 332.278 90.86 332.278 89.612V84.164C332.278 83.988 332.19 83.9 332.014 83.9ZM344.843 93.5H340.283C339.963 93.5 339.803 93.332 339.803 92.996V91.46C339.803 91.284 339.835 91.164 339.899 91.1C339.963 91.02 340.091 90.98 340.283 90.98H344.291C345.075 90.98 345.467 90.74 345.467 90.26V90.14C345.467 89.756 345.139 89.388 344.483 89.036L342.107 87.716C341.291 87.3 340.691 86.852 340.307 86.372C339.923 85.892 339.731 85.276 339.731 84.524C339.731 83.404 340.027 82.58 340.619 82.052C341.211 81.524 342.139 81.26 343.403 81.26H347.411C347.731 81.26 347.891 81.428 347.891 81.764V83.324C347.891 83.5 347.859 83.628 347.795 83.708C347.731 83.772 347.603 83.804 347.411 83.804H344.075C343.291 83.804 342.899 84.004 342.899 84.404V84.524C342.899 84.876 343.243 85.236 343.931 85.604L346.355 87.044C347.187 87.492 347.771 87.956 348.107 88.436C348.443 88.9 348.611 89.516 348.611 90.284C348.611 92.428 347.355 93.5 344.843 93.5Z" fill="#FFDD00"/>
<path d="M40.476 195.5H39.78C39.62 195.5 39.54 195.404 39.54 195.212V180.356C39.54 180.164 39.62 180.068 39.78 180.068H45.3C46.34 180.068 47.164 180.372 47.772 180.98C48.38 181.588 48.684 182.42 48.684 183.476V186.284C48.684 187.34 48.38 188.172 47.772 188.78C47.164 189.388 46.34 189.692 45.3 189.692H40.98C40.82 189.692 40.74 189.756 40.74 189.884V195.212C40.74 195.404 40.652 195.5 40.476 195.5ZM40.98 188.588H45.204C45.94 188.588 46.5 188.388 46.884 187.988C47.268 187.572 47.46 186.988 47.46 186.236V183.524C47.46 182.756 47.268 182.172 46.884 181.772C46.5 181.356 45.94 181.148 45.204 181.148H40.98C40.82 181.148 40.74 181.22 40.74 181.364V188.396C40.74 188.524 40.82 188.588 40.98 188.588ZM52.9419 195.5H52.2459C52.0859 195.5 52.0059 195.404 52.0059 195.212V178.916C52.0059 178.724 52.0859 178.628 52.2459 178.628H52.9419C53.1179 178.628 53.2059 178.724 53.2059 178.916V195.212C53.2059 195.404 53.1179 195.5 52.9419 195.5ZM61.581 195.5H60.045C59.005 195.5 58.181 195.196 57.573 194.588C56.981 193.98 56.685 193.148 56.685 192.092V186.668C56.685 185.612 56.981 184.78 57.573 184.172C58.181 183.564 59.005 183.26 60.045 183.26H65.133C65.293 183.26 65.373 183.356 65.373 183.548V195.212C65.373 195.404 65.293 195.5 65.133 195.5H64.437C64.261 195.5 64.173 195.404 64.173 195.212V194.252H64.077C63.661 195.084 62.829 195.5 61.581 195.5ZM64.173 192.068V184.556C64.173 184.412 64.093 184.34 63.933 184.34H60.141C59.405 184.34 58.845 184.548 58.461 184.964C58.077 185.38 57.885 185.964 57.885 186.716V192.044C57.885 192.796 58.077 193.38 58.461 193.796C58.845 194.212 59.405 194.42 60.141 194.42H61.701C62.469 194.42 63.069 194.22 63.501 193.82C63.949 193.404 64.173 192.82 64.173 192.068ZM69.5479 199.148H68.6599C68.4839 199.148 68.3959 199.06 68.3959 198.884V198.308C68.3959 198.132 68.4839 198.044 68.6599 198.044H69.3079C69.7879 198.044 70.1959 197.972 70.5319 197.828C70.8679 197.7 71.1639 197.452 71.4199 197.084C71.6759 196.716 71.8439 196.428 71.9239 196.22C72.1479 195.724 72.3319 195.268 72.4759 194.852H72.0199C71.8439 194.852 71.7319 194.756 71.6839 194.564L67.8679 183.548C67.8039 183.356 67.8679 183.26 68.0599 183.26H68.8039C68.9639 183.26 69.0679 183.356 69.1159 183.548L72.6439 193.844H72.7399L76.2679 183.548C76.3159 183.356 76.4199 183.26 76.5799 183.26H77.2999C77.4919 183.26 77.5639 183.356 77.5159 183.548C74.6519 191.932 73.1559 196.268 73.0279 196.556C72.9159 196.844 72.6999 197.236 72.3799 197.732C71.7719 198.676 70.8279 199.148 69.5479 199.148ZM88.1235 195.5H83.1075C82.0675 195.5 81.2435 195.196 80.6355 194.588C80.0435 193.98 79.7475 193.148 79.7475 192.092V186.668C79.7475 185.612 80.0435 184.78 80.6355 184.172C81.2435 183.564 82.0675 183.26 83.1075 183.26H85.1715C86.2115 183.26 87.0355 183.564 87.6435 184.172C88.2515 184.78 88.5555 185.612 88.5555 186.668V189.716C88.5555 189.908 88.4595 190.004 88.2675 190.004H81.1635C81.0195 190.004 80.9475 190.076 80.9475 190.22V192.068C80.9475 192.82 81.1395 193.404 81.5235 193.82C81.9075 194.22 82.4675 194.42 83.2035 194.42H88.1235C88.2995 194.42 88.3875 194.508 88.3875 194.684V195.236C88.3875 195.412 88.2995 195.5 88.1235 195.5ZM81.1635 189.044H87.1395C87.2835 189.044 87.3555 188.972 87.3555 188.828V186.692C87.3555 185.94 87.1635 185.364 86.7795 184.964C86.3955 184.548 85.8355 184.34 85.0995 184.34H83.2035C82.4675 184.34 81.9075 184.548 81.5235 184.964C81.1395 185.364 80.9475 185.94 80.9475 186.692V188.828C80.9475 188.972 81.0195 189.044 81.1635 189.044ZM92.736 195.5H92.04C91.88 195.5 91.8 195.404 91.8 195.212V183.548C91.8 183.356 91.88 183.26 92.04 183.26H92.736C92.912 183.26 93 183.356 93 183.548V184.556H93.096C93.272 184.22 93.584 183.924 94.032 183.668C94.48 183.396 95.032 183.26 95.688 183.26H96.624C96.8 183.26 96.888 183.348 96.888 183.524V184.1C96.888 184.276 96.8 184.356 96.624 184.34H95.496C94.712 184.34 94.096 184.58 93.648 185.06C93.216 185.54 93 186.188 93 187.004V195.212C93 195.404 92.912 195.5 92.736 195.5ZM106.658 195.5H105.962C105.802 195.5 105.722 195.404 105.722 195.212V183.548C105.722 183.356 105.802 183.26 105.962 183.26H106.658C106.834 183.26 106.922 183.356 106.922 183.548V184.556H107.018C107.194 184.22 107.506 183.924 107.954 183.668C108.402 183.396 108.954 183.26 109.61 183.26H110.546C110.722 183.26 110.81 183.348 110.81 183.524V184.1C110.81 184.276 110.722 184.356 110.546 184.34H109.418C108.634 184.34 108.018 184.58 107.57 185.06C107.138 185.54 106.922 186.188 106.922 187.004V195.212C106.922 195.404 106.834 195.5 106.658 195.5ZM118.429 195.5H116.365C115.325 195.5 114.501 195.196 113.893 194.588C113.301 193.98 113.005 193.148 113.005 192.092V186.668C113.005 185.612 113.301 184.78 113.893 184.172C114.501 183.564 115.325 183.26 116.365 183.26H118.429C119.469 183.26 120.293 183.564 120.901 184.172C121.509 184.78 121.813 185.612 121.813 186.668V192.092C121.813 193.148 121.509 193.98 120.901 194.588C120.293 195.196 119.469 195.5 118.429 195.5ZM116.461 194.42H118.333C119.069 194.42 119.629 194.22 120.013 193.82C120.413 193.404 120.613 192.82 120.613 192.068V186.692C120.613 185.94 120.413 185.364 120.013 184.964C119.629 184.548 119.069 184.34 118.333 184.34H116.461C115.725 184.34 115.165 184.548 114.781 184.964C114.397 185.364 114.205 185.94 114.205 186.692V192.068C114.205 192.82 114.397 193.404 114.781 193.82C115.165 194.22 115.725 194.42 116.461 194.42ZM126.208 195.5H125.512C125.352 195.5 125.272 195.404 125.272 195.212V178.916C125.272 178.724 125.352 178.628 125.512 178.628H126.208C126.384 178.628 126.472 178.724 126.472 178.916V195.212C126.472 195.404 126.384 195.5 126.208 195.5ZM131.247 195.5H130.551C130.391 195.5 130.311 195.404 130.311 195.212V178.916C130.311 178.724 130.391 178.628 130.551 178.628H131.247C131.423 178.628 131.511 178.724 131.511 178.916V195.212C131.511 195.404 131.423 195.5 131.247 195.5ZM136.382 183.524V186.404C136.382 186.58 136.302 186.668 136.142 186.668H135.302C135.126 186.668 135.038 186.58 135.038 186.404V183.524C135.038 183.348 135.126 183.26 135.302 183.26H136.142C136.302 183.26 136.382 183.348 136.382 183.524ZM136.382 192.356V195.212C136.382 195.404 136.302 195.5 136.142 195.5H135.302C135.126 195.5 135.038 195.404 135.038 195.212V192.356C135.038 192.18 135.126 192.092 135.302 192.092H136.142C136.302 192.092 136.382 192.18 136.382 192.356Z" fill="#FFDD00"/>
<rect x="156" y="134.5" width="72" height="72" rx="10.5" fill="#1C1F21" stroke="#FFDD00" stroke-width="3"/>
<circle cx="179.625" cy="158.125" r="9.375" fill="#FFDD00"/>
<circle cx="204.375" cy="183.125" r="9.375" fill="#FFDD00"/>
<path d="M177.9 235H177.204C177.028 235 176.94 234.904 176.94 234.712V220.864C176.94 220.72 176.86 220.648 176.7 220.648H173.22C173.028 220.648 172.932 220.56 172.932 220.384V219.832C172.932 219.656 173.028 219.568 173.22 219.568H181.86C182.052 219.568 182.148 219.656 182.148 219.832V220.384C182.148 220.56 182.052 220.648 181.86 220.648H178.38C178.22 220.648 178.14 220.72 178.14 220.864V234.712C178.14 234.904 178.06 235 177.9 235ZM187.714 235H186.754C186.594 235 186.49 234.904 186.442 234.712L183.082 223.048C183.034 222.856 183.098 222.76 183.274 222.76H184.042C184.218 222.76 184.322 222.856 184.354 223.048L187.186 233.488H187.306L190.09 223.048C190.122 222.856 190.234 222.76 190.426 222.76H191.122C191.314 222.76 191.426 222.856 191.458 223.048L194.194 233.488H194.314L197.17 223.048C197.218 222.856 197.322 222.76 197.482 222.76H198.25C198.442 222.76 198.506 222.856 198.442 223.048L195.106 234.712C195.058 234.904 194.946 235 194.77 235H193.81C193.634 235 193.522 234.904 193.474 234.712L190.81 224.584H190.69L188.05 234.712C188.002 234.904 187.89 235 187.714 235ZM205.945 235H203.881C202.841 235 202.017 234.696 201.409 234.088C200.817 233.48 200.521 232.648 200.521 231.592V226.168C200.521 225.112 200.817 224.28 201.409 223.672C202.017 223.064 202.841 222.76 203.881 222.76H205.945C206.985 222.76 207.809 223.064 208.417 223.672C209.025 224.28 209.329 225.112 209.329 226.168V231.592C209.329 232.648 209.025 233.48 208.417 234.088C207.809 234.696 206.985 235 205.945 235ZM203.977 233.92H205.849C206.585 233.92 207.145 233.72 207.529 233.32C207.929 232.904 208.129 232.32 208.129 231.568V226.192C208.129 225.44 207.929 224.864 207.529 224.464C207.145 224.048 206.585 223.84 205.849 223.84H203.977C203.241 223.84 202.681 224.048 202.297 224.464C201.913 224.864 201.721 225.44 201.721 226.192V231.568C201.721 232.32 201.913 232.904 202.297 233.32C202.681 233.72 203.241 233.92 203.977 233.92Z" fill="#FFDD00"/>
<rect x="247" y="134.5" width="72" height="72" rx="10.5" fill="#1C1F21" stroke="#FFDD00" stroke-width="3"/>
<circle cx="270.625" cy="158.125" r="9.375" fill="#FFDD00"/>
<circle cx="295.375" cy="183.125" r="9.375" fill="#FFDD00"/>
<path d="M268.9 235H268.204C268.028 235 267.94 234.904 267.94 234.712V220.864C267.94 220.72 267.86 220.648 267.7 220.648H264.22C264.028 220.648 263.932 220.56 263.932 220.384V219.832C263.932 219.656 264.028 219.568 264.22 219.568H272.86C273.052 219.568 273.148 219.656 273.148 219.832V220.384C273.148 220.56 273.052 220.648 272.86 220.648H269.38C269.22 220.648 269.14 220.72 269.14 220.864V234.712C269.14 234.904 269.06 235 268.9 235ZM278.714 235H277.754C277.594 235 277.49 234.904 277.442 234.712L274.082 223.048C274.034 222.856 274.098 222.76 274.274 222.76H275.042C275.218 222.76 275.322 222.856 275.354 223.048L278.186 233.488H278.306L281.09 223.048C281.122 222.856 281.234 222.76 281.426 222.76H282.122C282.314 222.76 282.426 222.856 282.458 223.048L285.194 233.488H285.314L288.17 223.048C288.218 222.856 288.322 222.76 288.482 222.76H289.25C289.442 222.76 289.506 222.856 289.442 223.048L286.106 234.712C286.058 234.904 285.946 235 285.77 235H284.81C284.634 235 284.522 234.904 284.474 234.712L281.81 224.584H281.69L279.05 234.712C279.002 234.904 278.89 235 278.714 235ZM296.945 235H294.881C293.841 235 293.017 234.696 292.409 234.088C291.817 233.48 291.521 232.648 291.521 231.592V226.168C291.521 225.112 291.817 224.28 292.409 223.672C293.017 223.064 293.841 222.76 294.881 222.76H296.945C297.985 222.76 298.809 223.064 299.417 223.672C300.025 224.28 300.329 225.112 300.329 226.168V231.592C300.329 232.648 300.025 233.48 299.417 234.088C298.809 234.696 297.985 235 296.945 235ZM294.977 233.92H296.849C297.585 233.92 298.145 233.72 298.529 233.32C298.929 232.904 299.129 232.32 299.129 231.568V226.192C299.129 225.44 298.929 224.864 298.529 224.464C298.145 224.048 297.585 223.84 296.849 223.84H294.977C294.241 223.84 293.681 224.048 293.297 224.464C292.913 224.864 292.721 225.44 292.721 226.192V231.568C292.721 232.32 292.913 232.904 293.297 233.32C293.681 233.72 294.241 233.92 294.977 233.92Z" fill="#FFDD00"/>
<path d="M15.776 282H13.16C12.12 282 11.296 281.696 10.688 281.088C10.096 280.48 9.8 279.648 9.8 278.592V269.976C9.8 268.92 10.096 268.088 10.688 267.48C11.296 266.872 12.12 266.568 13.16 266.568H15.776C16.816 266.568 17.64 266.872 18.248 267.48C18.856 268.088 19.16 268.92 19.16 269.976V271.056C19.16 271.248 19.072 271.344 18.896 271.344H18.2C18.024 271.344 17.936 271.248 17.936 271.056V270.024C17.936 269.256 17.744 268.672 17.36 268.272C16.976 267.856 16.416 267.648 15.68 267.648H13.256C12.52 267.648 11.96 267.856 11.576 268.272C11.192 268.688 11 269.272 11 270.024V278.544C11 279.296 11.192 279.88 11.576 280.296C11.96 280.712 12.52 280.92 13.256 280.92H15.68C16.416 280.92 16.976 280.72 17.36 280.32C17.744 279.904 17.936 279.312 17.936 278.544V275.376C17.936 275.232 17.864 275.16 17.72 275.16H14.96C14.784 275.16 14.696 275.072 14.696 274.896V274.344C14.696 274.168 14.784 274.08 14.96 274.08H18.704C19.008 274.08 19.16 274.24 19.16 274.56V278.592C19.16 279.648 18.856 280.48 18.248 281.088C17.64 281.696 16.816 282 15.776 282ZM23.6735 282H22.9775C22.8175 282 22.7375 281.904 22.7375 281.712V270.048C22.7375 269.856 22.8175 269.76 22.9775 269.76H23.6735C23.8495 269.76 23.9375 269.856 23.9375 270.048V271.056H24.0335C24.2095 270.72 24.5215 270.424 24.9695 270.168C25.4175 269.896 25.9695 269.76 26.6255 269.76H27.5615C27.7375 269.76 27.8255 269.848 27.8255 270.024V270.6C27.8255 270.776 27.7375 270.856 27.5615 270.84H26.4335C25.6495 270.84 25.0335 271.08 24.5855 271.56C24.1535 272.04 23.9375 272.688 23.9375 273.504V281.712C23.9375 281.904 23.8495 282 23.6735 282ZM35.4449 282H33.3809C32.3409 282 31.5169 281.696 30.9089 281.088C30.3169 280.48 30.0209 279.648 30.0209 278.592V273.168C30.0209 272.112 30.3169 271.28 30.9089 270.672C31.5169 270.064 32.3409 269.76 33.3809 269.76H35.4449C36.4849 269.76 37.3089 270.064 37.9169 270.672C38.5249 271.28 38.8289 272.112 38.8289 273.168V278.592C38.8289 279.648 38.5249 280.48 37.9169 281.088C37.3089 281.696 36.4849 282 35.4449 282ZM33.4769 280.92H35.3489C36.0849 280.92 36.6449 280.72 37.0289 280.32C37.4289 279.904 37.6289 279.32 37.6289 278.568V273.192C37.6289 272.44 37.4289 271.864 37.0289 271.464C36.6449 271.048 36.0849 270.84 35.3489 270.84H33.4769C32.7409 270.84 32.1809 271.048 31.7969 271.464C31.4129 271.864 31.2209 272.44 31.2209 273.192V278.568C31.2209 279.32 31.4129 279.904 31.7969 280.32C32.1809 280.72 32.7409 280.92 33.4769 280.92ZM46.9432 282H45.3592C44.3352 282 43.5272 281.696 42.9352 281.088C42.3432 280.48 42.0472 279.648 42.0472 278.592V270.048C42.0472 269.856 42.1272 269.76 42.2872 269.76H42.9832C43.1592 269.76 43.2472 269.856 43.2472 270.048V278.544C43.2472 279.296 43.4392 279.88 43.8232 280.296C44.2072 280.712 44.7672 280.92 45.5032 280.92H47.0632C47.8312 280.92 48.4312 280.72 48.8632 280.32C49.3112 279.904 49.5352 279.32 49.5352 278.568V270.048C49.5352 269.856 49.6232 269.76 49.7992 269.76H50.4952C50.6552 269.76 50.7352 269.856 50.7352 270.048V281.712C50.7352 281.904 50.6552 282 50.4952 282H49.7992C49.6232 282 49.5352 281.904 49.5352 281.712V280.752H49.4392C49.0232 281.584 48.1912 282 46.9432 282ZM55.2673 285.576H54.5713C54.4113 285.576 54.3313 285.488 54.3313 285.312V270.048C54.3313 269.856 54.4113 269.76 54.5713 269.76H55.2673C55.4433 269.76 55.5312 269.856 55.5312 270.048V271.008H55.6273C56.0753 270.176 56.9073 269.76 58.1233 269.76H59.7553C60.7793 269.76 61.5873 270.064 62.1793 270.672C62.7713 271.28 63.0673 272.112 63.0673 273.168V278.592C63.0673 279.648 62.7713 280.48 62.1793 281.088C61.5873 281.696 60.7793 282 59.7553 282H58.1233C56.9073 282 56.0753 281.584 55.6273 280.752H55.5312V285.312C55.5312 285.488 55.4433 285.576 55.2673 285.576ZM58.0033 280.92H59.5872C60.3233 280.92 60.8833 280.72 61.2673 280.32C61.6673 279.904 61.8673 279.312 61.8673 278.544V273.216C61.8673 272.448 61.6673 271.864 61.2673 271.464C60.8833 271.048 60.3233 270.84 59.5872 270.84H58.0033C57.2353 270.84 56.6273 271.048 56.1793 271.464C55.7473 271.864 55.5312 272.44 55.5312 273.192V278.568C55.5312 279.32 55.7473 279.904 56.1793 280.32C56.6273 280.72 57.2353 280.92 58.0033 280.92ZM72.9674 278.592V277.728C72.9674 277.552 73.0554 277.464 73.2314 277.464H73.9274C74.1034 277.464 74.1914 277.552 74.1914 277.728V278.52C74.1914 280.12 74.9674 280.92 76.5194 280.92H79.0154C80.5674 280.92 81.3434 280.112 81.3434 278.496V277.488C81.3434 276.784 81.0554 276.232 80.4794 275.832C79.9034 275.432 79.2074 275.144 78.3914 274.968C77.5754 274.792 76.7514 274.608 75.9194 274.416C75.1034 274.224 74.4074 273.872 73.8314 273.36C73.2554 272.848 72.9674 272.16 72.9674 271.296V269.976C72.9674 268.92 73.2714 268.088 73.8794 267.48C74.4874 266.872 75.3114 266.568 76.3514 266.568H79.1354C80.1754 266.568 80.9994 266.872 81.6074 267.48C82.2154 268.088 82.5194 268.92 82.5194 269.976V270.648C82.5194 270.824 82.4314 270.912 82.2554 270.912H81.5594C81.3834 270.912 81.2954 270.824 81.2954 270.648V270.048C81.2954 268.448 80.5194 267.648 78.9674 267.648H76.4954C74.9594 267.648 74.1914 268.464 74.1914 270.096V271.296C74.1914 272.4 75.1754 273.144 77.1434 273.528C77.9594 273.688 78.7754 273.872 79.5914 274.08C80.4234 274.288 81.1274 274.664 81.7034 275.208C82.2794 275.752 82.5674 276.488 82.5674 277.416V278.592C82.5674 279.648 82.2634 280.48 81.6554 281.088C81.0474 281.696 80.2234 282 79.1834 282H76.3514C75.3114 282 74.4874 281.696 73.8794 281.088C73.2714 280.48 72.9674 279.648 72.9674 278.592ZM86.828 270.84H85.364C85.188 270.84 85.1 270.76 85.1 270.6V270.024C85.1 269.848 85.188 269.76 85.364 269.76H86.828C86.972 269.76 87.044 269.688 87.044 269.544V267.6C87.044 267.408 87.132 267.312 87.308 267.312H88.004C88.18 267.312 88.268 267.408 88.268 267.6V269.544C88.268 269.688 88.34 269.76 88.484 269.76H91.34C91.516 269.76 91.604 269.848 91.604 270.024V270.6C91.604 270.76 91.516 270.84 91.34 270.84H88.484C88.34 270.84 88.268 270.912 88.268 271.056V278.616C88.268 279.352 88.476 279.92 88.892 280.32C89.308 280.72 89.892 280.92 90.644 280.92H91.58C91.756 280.92 91.844 281.008 91.844 281.184V281.736C91.844 281.912 91.756 282 91.58 282H90.548C89.492 282 88.644 281.704 88.004 281.112C87.364 280.52 87.044 279.704 87.044 278.664V271.056C87.044 270.912 86.972 270.84 86.828 270.84ZM99.2763 282H97.7403C96.7003 282 95.8763 281.696 95.2683 281.088C94.6763 280.48 94.3803 279.648 94.3803 278.592V273.168C94.3803 272.112 94.6763 271.28 95.2683 270.672C95.8763 270.064 96.7003 269.76 97.7403 269.76H102.828C102.988 269.76 103.068 269.856 103.068 270.048V281.712C103.068 281.904 102.988 282 102.828 282H102.132C101.956 282 101.868 281.904 101.868 281.712V280.752H101.772C101.356 281.584 100.524 282 99.2763 282ZM101.868 278.568V271.056C101.868 270.912 101.788 270.84 101.628 270.84H97.8363C97.1003 270.84 96.5403 271.048 96.1563 271.464C95.7723 271.88 95.5803 272.464 95.5803 273.216V278.544C95.5803 279.296 95.7723 279.88 96.1563 280.296C96.5403 280.712 97.1003 280.92 97.8363 280.92H99.3963C100.164 280.92 100.764 280.72 101.196 280.32C101.644 279.904 101.868 279.32 101.868 278.568ZM110.627 282H106.451C106.275 282 106.187 281.912 106.187 281.736V281.184C106.187 281.024 106.275 280.944 106.451 280.944H110.507C111.947 280.944 112.667 280.384 112.667 279.264V278.688C112.667 277.648 112.219 276.968 111.323 276.648L108.323 275.496C107.507 275.176 106.923 274.8 106.571 274.368C106.235 273.936 106.067 273.336 106.067 272.568C106.067 270.696 107.099 269.76 109.163 269.76H113.051C113.227 269.76 113.315 269.848 113.315 270.024V270.576C113.315 270.736 113.227 270.816 113.051 270.816H109.283C108.627 270.816 108.131 270.96 107.795 271.248C107.475 271.536 107.315 271.872 107.315 272.256V272.808C107.315 273.256 107.435 273.608 107.675 273.864C107.931 274.12 108.315 274.336 108.827 274.512L111.827 275.712C112.659 275.984 113.211 276.392 113.483 276.936C113.771 277.464 113.915 278.208 113.915 279.168C113.915 280.128 113.643 280.84 113.099 281.304C112.571 281.768 111.747 282 110.627 282ZM117.939 282H117.243C117.083 282 117.003 281.904 117.003 281.712V265.416C117.003 265.224 117.083 265.128 117.243 265.128H117.939C118.115 265.128 118.203 265.224 118.203 265.416V271.008H118.299C118.747 270.176 119.579 269.76 120.795 269.76H122.379C123.403 269.76 124.211 270.064 124.803 270.672C125.395 271.28 125.691 272.112 125.691 273.168V281.712C125.691 281.904 125.611 282 125.451 282H124.755C124.579 282 124.491 281.904 124.491 281.712V273.216C124.491 272.464 124.299 271.88 123.915 271.464C123.531 271.048 122.971 270.84 122.235 270.84H120.675C119.907 270.84 119.299 271.048 118.851 271.464C118.419 271.864 118.203 272.44 118.203 273.192V281.712C118.203 281.904 118.115 282 117.939 282ZM140.222 282H138.686C137.646 282 136.822 281.696 136.214 281.088C135.622 280.48 135.326 279.648 135.326 278.592V273.168C135.326 272.112 135.622 271.28 136.214 270.672C136.822 270.064 137.646 269.76 138.686 269.76H143.774C143.934 269.76 144.014 269.856 144.014 270.048V281.712C144.014 281.904 143.934 282 143.774 282H143.078C142.902 282 142.814 281.904 142.814 281.712V280.752H142.718C142.302 281.584 141.47 282 140.222 282ZM142.814 278.568V271.056C142.814 270.912 142.734 270.84 142.574 270.84H138.782C138.046 270.84 137.486 271.048 137.102 271.464C136.718 271.88 136.526 272.464 136.526 273.216V278.544C136.526 279.296 136.718 279.88 137.102 280.296C137.486 280.712 138.046 280.92 138.782 280.92H140.342C141.11 280.92 141.71 280.72 142.142 280.32C142.59 279.904 142.814 279.32 142.814 278.568ZM150.133 269.76H152.317C152.509 269.76 152.605 269.848 152.605 270.024V270.576C152.605 270.752 152.509 270.84 152.317 270.84H150.133C149.989 270.84 149.917 270.912 149.917 271.056V281.712C149.917 281.904 149.829 282 149.653 282H148.957C148.781 282 148.693 281.904 148.693 281.712V271.056C148.693 270.912 148.621 270.84 148.477 270.84H146.941C146.765 270.84 146.677 270.752 146.677 270.576V270.024C146.677 269.848 146.765 269.76 146.941 269.76H148.477C148.621 269.76 148.693 269.688 148.693 269.544V268.488C148.693 266.248 149.709 265.128 151.741 265.128H152.317C152.509 265.128 152.605 265.216 152.605 265.392V265.944C152.605 266.12 152.509 266.208 152.317 266.208H151.861C151.141 266.208 150.637 266.4 150.349 266.784C150.061 267.168 149.917 267.752 149.917 268.536V269.544C149.917 269.688 149.989 269.76 150.133 269.76ZM155.406 270.84H153.942C153.766 270.84 153.678 270.76 153.678 270.6V270.024C153.678 269.848 153.766 269.76 153.942 269.76H155.406C155.55 269.76 155.622 269.688 155.622 269.544V267.6C155.622 267.408 155.71 267.312 155.886 267.312H156.582C156.758 267.312 156.846 267.408 156.846 267.6V269.544C156.846 269.688 156.918 269.76 157.062 269.76H159.918C160.094 269.76 160.182 269.848 160.182 270.024V270.6C160.182 270.76 160.094 270.84 159.918 270.84H157.062C156.918 270.84 156.846 270.912 156.846 271.056V278.616C156.846 279.352 157.054 279.92 157.47 280.32C157.886 280.72 158.47 280.92 159.222 280.92H160.158C160.334 280.92 160.422 281.008 160.422 281.184V281.736C160.422 281.912 160.334 282 160.158 282H159.126C158.07 282 157.222 281.704 156.582 281.112C155.942 280.52 155.622 279.704 155.622 278.664V271.056C155.622 270.912 155.55 270.84 155.406 270.84ZM171.334 282H166.318C165.278 282 164.454 281.696 163.846 281.088C163.254 280.48 162.958 279.648 162.958 278.592V273.168C162.958 272.112 163.254 271.28 163.846 270.672C164.454 270.064 165.278 269.76 166.318 269.76H168.382C169.422 269.76 170.246 270.064 170.854 270.672C171.462 271.28 171.766 272.112 171.766 273.168V276.216C171.766 276.408 171.67 276.504 171.478 276.504H164.374C164.23 276.504 164.158 276.576 164.158 276.72V278.568C164.158 279.32 164.35 279.904 164.734 280.32C165.118 280.72 165.678 280.92 166.414 280.92H171.334C171.51 280.92 171.598 281.008 171.598 281.184V281.736C171.598 281.912 171.51 282 171.334 282ZM164.374 275.544H170.35C170.494 275.544 170.566 275.472 170.566 275.328V273.192C170.566 272.44 170.374 271.864 169.99 271.464C169.606 271.048 169.046 270.84 168.31 270.84H166.414C165.678 270.84 165.118 271.048 164.734 271.464C164.35 271.864 164.158 272.44 164.158 273.192V275.328C164.158 275.472 164.23 275.544 164.374 275.544ZM175.947 282H175.251C175.091 282 175.011 281.904 175.011 281.712V270.048C175.011 269.856 175.091 269.76 175.251 269.76H175.947C176.123 269.76 176.211 269.856 176.211 270.048V271.056H176.307C176.483 270.72 176.795 270.424 177.243 270.168C177.691 269.896 178.243 269.76 178.899 269.76H179.835C180.011 269.76 180.099 269.848 180.099 270.024V270.6C180.099 270.776 180.011 270.856 179.835 270.84H178.707C177.923 270.84 177.307 271.08 176.859 271.56C176.427 272.04 176.211 272.688 176.211 273.504V281.712C176.211 281.904 176.123 282 175.947 282ZM10.736 316.576H10.04C9.88 316.576 9.8 316.488 9.8 316.312V301.048C9.8 300.856 9.88 300.76 10.04 300.76H10.736C10.912 300.76 11 300.856 11 301.048V302.008H11.096C11.544 301.176 12.376 300.76 13.592 300.76H15.224C16.248 300.76 17.056 301.064 17.648 301.672C18.24 302.28 18.536 303.112 18.536 304.168V309.592C18.536 310.648 18.24 311.48 17.648 312.088C17.056 312.696 16.248 313 15.224 313H13.592C12.376 313 11.544 312.584 11.096 311.752H11V316.312C11 316.488 10.912 316.576 10.736 316.576ZM13.472 311.92H15.056C15.792 311.92 16.352 311.72 16.736 311.32C17.136 310.904 17.336 310.312 17.336 309.544V304.216C17.336 303.448 17.136 302.864 16.736 302.464C16.352 302.048 15.792 301.84 15.056 301.84H13.472C12.704 301.84 12.096 302.048 11.648 302.464C11.216 302.864 11 303.44 11 304.192V309.568C11 310.32 11.216 310.904 11.648 311.32C12.096 311.72 12.704 311.92 13.472 311.92ZM22.9498 313H22.2538C22.0938 313 22.0138 312.904 22.0138 312.712V296.416C22.0138 296.224 22.0938 296.128 22.2538 296.128H22.9498C23.1258 296.128 23.2138 296.224 23.2138 296.416V312.712C23.2138 312.904 23.1258 313 22.9498 313ZM31.5888 313H30.0528C29.0128 313 28.1888 312.696 27.5808 312.088C26.9888 311.48 26.6928 310.648 26.6928 309.592V304.168C26.6928 303.112 26.9888 302.28 27.5808 301.672C28.1888 301.064 29.0128 300.76 30.0528 300.76H35.1408C35.3008 300.76 35.3808 300.856 35.3808 301.048V312.712C35.3808 312.904 35.3008 313 35.1408 313H34.4448C34.2688 313 34.1808 312.904 34.1808 312.712V311.752H34.0848C33.6688 312.584 32.8368 313 31.5888 313ZM34.1808 309.568V302.056C34.1808 301.912 34.1008 301.84 33.9408 301.84H30.1488C29.4128 301.84 28.8528 302.048 28.4688 302.464C28.0848 302.88 27.8928 303.464 27.8928 304.216V309.544C27.8928 310.296 28.0848 310.88 28.4688 311.296C28.8528 311.712 29.4128 311.92 30.1488 311.92H31.7088C32.4768 311.92 33.0768 311.72 33.5088 311.32C33.9568 310.904 34.1808 310.32 34.1808 309.568ZM39.5557 316.648H38.6677C38.4917 316.648 38.4037 316.56 38.4037 316.384V315.808C38.4037 315.632 38.4917 315.544 38.6677 315.544H39.3157C39.7957 315.544 40.2037 315.472 40.5397 315.328C40.8757 315.2 41.1717 314.952 41.4277 314.584C41.6837 314.216 41.8517 313.928 41.9317 313.72C42.1557 313.224 42.3397 312.768 42.4837 312.352H42.0277C41.8517 312.352 41.7397 312.256 41.6917 312.064L37.8757 301.048C37.8117 300.856 37.8757 300.76 38.0677 300.76H38.8117C38.9717 300.76 39.0757 300.856 39.1237 301.048L42.6517 311.344H42.7477L46.2757 301.048C46.3237 300.856 46.4277 300.76 46.5877 300.76H47.3077C47.4997 300.76 47.5717 300.856 47.5237 301.048C44.6597 309.432 43.1637 313.768 43.0357 314.056C42.9237 314.344 42.7077 314.736 42.3877 315.232C41.7797 316.176 40.8357 316.648 39.5557 316.648ZM58.1313 313H53.1153C52.0753 313 51.2513 312.696 50.6433 312.088C50.0513 311.48 49.7553 310.648 49.7553 309.592V304.168C49.7553 303.112 50.0513 302.28 50.6433 301.672C51.2513 301.064 52.0753 300.76 53.1153 300.76H55.1793C56.2193 300.76 57.0433 301.064 57.6513 301.672C58.2593 302.28 58.5633 303.112 58.5633 304.168V307.216C58.5633 307.408 58.4673 307.504 58.2753 307.504H51.1713C51.0273 307.504 50.9553 307.576 50.9553 307.72V309.568C50.9553 310.32 51.1473 310.904 51.5313 311.32C51.9153 311.72 52.4753 311.92 53.2113 311.92H58.1313C58.3073 311.92 58.3953 312.008 58.3953 312.184V312.736C58.3953 312.912 58.3073 313 58.1313 313ZM51.1713 306.544H57.1473C57.2913 306.544 57.3633 306.472 57.3633 306.328V304.192C57.3633 303.44 57.1713 302.864 56.7873 302.464C56.4033 302.048 55.8433 301.84 55.1073 301.84H53.2113C52.4753 301.84 51.9153 302.048 51.5313 302.464C51.1473 302.864 50.9553 303.44 50.9553 304.192V306.328C50.9553 306.472 51.0273 306.544 51.1713 306.544ZM62.7438 313H62.0478C61.8878 313 61.8078 312.904 61.8078 312.712V301.048C61.8078 300.856 61.8878 300.76 62.0478 300.76H62.7438C62.9198 300.76 63.0078 300.856 63.0078 301.048V302.056H63.1038C63.2798 301.72 63.5918 301.424 64.0398 301.168C64.4878 300.896 65.0398 300.76 65.6958 300.76H66.6318C66.8078 300.76 66.8958 300.848 66.8958 301.024V301.6C66.8958 301.776 66.8078 301.856 66.6318 301.84H65.5038C64.7198 301.84 64.1038 302.08 63.6558 302.56C63.2238 303.04 63.0078 303.688 63.0078 304.504V312.712C63.0078 312.904 62.9198 313 62.7438 313ZM76.6657 313H75.9697C75.8097 313 75.7297 312.904 75.7297 312.712V301.048C75.7297 300.856 75.8097 300.76 75.9697 300.76H76.6657C76.8417 300.76 76.9297 300.856 76.9297 301.048V302.056H77.0257C77.2017 301.72 77.5137 301.424 77.9617 301.168C78.4097 300.896 78.9617 300.76 79.6177 300.76H80.5537C80.7297 300.76 80.8177 300.848 80.8177 301.024V301.6C80.8177 301.776 80.7297 301.856 80.5537 301.84H79.4257C78.6417 301.84 78.0257 302.08 77.5777 302.56C77.1457 303.04 76.9297 303.688 76.9297 304.504V312.712C76.9297 312.904 76.8417 313 76.6657 313ZM88.4371 313H86.3731C85.3331 313 84.5091 312.696 83.9011 312.088C83.3091 311.48 83.0131 310.648 83.0131 309.592V304.168C83.0131 303.112 83.3091 302.28 83.9011 301.672C84.5091 301.064 85.3331 300.76 86.3731 300.76H88.4371C89.4771 300.76 90.3011 301.064 90.9091 301.672C91.5171 302.28 91.8211 303.112 91.8211 304.168V309.592C91.8211 310.648 91.5171 311.48 90.9091 312.088C90.3011 312.696 89.4771 313 88.4371 313ZM86.4691 311.92H88.3411C89.0771 311.92 89.6371 311.72 90.0211 311.32C90.4211 310.904 90.6211 310.32 90.6211 309.568V304.192C90.6211 303.44 90.4211 302.864 90.0211 302.464C89.6371 302.048 89.0771 301.84 88.3411 301.84H86.4691C85.7331 301.84 85.1731 302.048 84.7891 302.464C84.4051 302.864 84.2131 303.44 84.2131 304.192V309.568C84.2131 310.32 84.4051 310.904 84.7891 311.32C85.1731 311.72 85.7331 311.92 86.4691 311.92ZM96.2154 313H95.5194C95.3594 313 95.2794 312.904 95.2794 312.712V296.416C95.2794 296.224 95.3594 296.128 95.5194 296.128H96.2154C96.3914 296.128 96.4794 296.224 96.4794 296.416V312.712C96.4794 312.904 96.3914 313 96.2154 313ZM101.254 313H100.558C100.398 313 100.318 312.904 100.318 312.712V296.416C100.318 296.224 100.398 296.128 100.558 296.128H101.254C101.43 296.128 101.518 296.224 101.518 296.416V312.712C101.518 312.904 101.43 313 101.254 313ZM106.39 301.024V303.904C106.39 304.08 106.31 304.168 106.15 304.168H105.31C105.134 304.168 105.046 304.08 105.046 303.904V301.024C105.046 300.848 105.134 300.76 105.31 300.76H106.15C106.31 300.76 106.39 300.848 106.39 301.024ZM106.39 309.856V312.712C106.39 312.904 106.31 313 106.15 313H105.31C105.134 313 105.046 312.904 105.046 312.712V309.856C105.046 309.68 105.134 309.592 105.31 309.592H106.15C106.31 309.592 106.39 309.68 106.39 309.856Z" fill="#FFDD00"/>
<path d="M261.688 294.884H263.32C263.832 294.884 264.192 294.78 264.4 294.572C264.608 294.364 264.712 294.012 264.712 293.516V292.412C264.712 291.9 264.608 291.524 264.4 291.284C264.192 291.044 263.832 290.924 263.32 290.924H261.688C261.176 290.924 260.816 291.044 260.608 291.284C260.4 291.524 260.296 291.9 260.296 292.412V293.516C260.296 294.012 260.4 294.364 260.608 294.572C260.816 294.78 261.176 294.884 261.688 294.884ZM261.688 288.548H263.32C263.832 288.548 264.192 288.428 264.4 288.188C264.608 287.948 264.712 287.572 264.712 287.06V286.052C264.712 285.556 264.608 285.204 264.4 284.996C264.192 284.788 263.832 284.684 263.32 284.684H261.688C261.176 284.684 260.816 284.788 260.608 284.996C260.4 285.204 260.296 285.556 260.296 286.052V287.06C260.296 287.572 260.4 287.948 260.608 288.188C260.816 288.428 261.176 288.548 261.688 288.548ZM263.776 297.5H261.232C259.952 297.5 258.968 297.188 258.28 296.564C257.608 295.924 257.272 294.988 257.272 293.756V292.652C257.272 291.18 257.8 290.212 258.856 289.748C257.8 289.316 257.272 288.34 257.272 286.82V285.788C257.272 284.556 257.608 283.628 258.28 283.004C258.968 282.38 259.952 282.068 261.232 282.068H263.776C265.04 282.068 266.008 282.38 266.68 283.004C267.368 283.628 267.712 284.556 267.712 285.788V286.82C267.712 287.572 267.568 288.212 267.28 288.74C266.992 289.268 266.616 289.604 266.152 289.748C267.192 290.164 267.712 291.14 267.712 292.676V293.756C267.712 294.988 267.368 295.924 266.68 296.564C266.008 297.188 265.04 297.5 263.776 297.5ZM276.64 292.052V284.636L272.752 292.052H276.64ZM279.016 297.5H277.144C276.808 297.5 276.64 297.332 276.64 296.996V294.692H270.688C270.416 294.692 270.2 294.612 270.04 294.452C269.88 294.292 269.8 294.076 269.8 293.804V292.868C269.8 292.388 269.88 291.996 270.04 291.692L274.816 282.812C274.976 282.524 275.12 282.332 275.248 282.236C275.392 282.124 275.6 282.068 275.872 282.068H278.584C278.856 282.068 279.072 282.148 279.232 282.308C279.408 282.468 279.496 282.684 279.496 282.956V292.052H281.224C281.544 292.052 281.704 292.212 281.704 292.532V294.14C281.704 294.508 281.544 294.692 281.224 294.692H279.496V296.996C279.496 297.188 279.456 297.324 279.376 297.404C279.312 297.468 279.192 297.5 279.016 297.5ZM291.13 300.764H289.09C288.754 300.764 288.586 300.604 288.586 300.284V285.764C288.586 285.428 288.754 285.26 289.09 285.26H291.13C291.466 285.26 291.634 285.428 291.634 285.764V286.556H291.73C291.906 286.124 292.218 285.804 292.666 285.596C293.114 285.372 293.586 285.26 294.082 285.26H295.066C296.298 285.26 297.226 285.596 297.85 286.268C298.49 286.94 298.81 287.908 298.81 289.172V293.588C298.81 294.852 298.49 295.82 297.85 296.492C297.226 297.164 296.298 297.5 295.066 297.5H294.082C293.586 297.5 293.114 297.396 292.666 297.188C292.218 296.964 291.906 296.636 291.73 296.204H291.634V300.284C291.634 300.604 291.466 300.764 291.13 300.764ZM293.29 294.86H294.346C294.858 294.86 295.218 294.756 295.426 294.548C295.65 294.324 295.762 293.956 295.762 293.444V289.316C295.762 288.804 295.65 288.444 295.426 288.236C295.218 288.012 294.858 287.9 294.346 287.9H293.29C292.186 287.9 291.634 288.508 291.634 289.724V293.036C291.634 294.252 292.186 294.86 293.29 294.86ZM307.074 297.5H304.938C303.674 297.5 302.698 297.164 302.01 296.492C301.322 295.82 300.978 294.852 300.978 293.588V289.172C300.978 287.908 301.322 286.94 302.01 286.268C302.698 285.596 303.674 285.26 304.938 285.26H307.074C308.322 285.26 309.29 285.604 309.978 286.292C310.682 286.964 311.034 287.924 311.034 289.172V293.588C311.034 294.836 310.682 295.804 309.978 296.492C309.29 297.164 308.322 297.5 307.074 297.5ZM305.394 294.884H306.618C307.13 294.884 307.49 294.78 307.698 294.572C307.922 294.364 308.034 294.004 308.034 293.492V289.268C308.034 288.756 307.922 288.396 307.698 288.188C307.49 287.98 307.13 287.876 306.618 287.876H305.394C304.882 287.876 304.522 287.98 304.314 288.188C304.106 288.396 304.002 288.756 304.002 289.268V293.492C304.002 294.004 304.106 294.364 304.314 294.572C304.522 294.78 304.882 294.884 305.394 294.884ZM313.549 283.196V281.108C313.549 280.788 313.709 280.628 314.029 280.628H316.117C316.437 280.628 316.597 280.78 316.597 281.084V283.196C316.597 283.516 316.437 283.676 316.117 283.676H314.029C313.709 283.676 313.549 283.516 313.549 283.196ZM313.549 296.996V285.764C313.549 285.428 313.709 285.26 314.029 285.26H316.093C316.429 285.26 316.597 285.428 316.597 285.764V296.996C316.597 297.204 316.557 297.34 316.477 297.404C316.413 297.468 316.293 297.5 316.117 297.5H314.053C313.717 297.5 313.549 297.332 313.549 296.996ZM321.903 297.5H319.863C319.527 297.5 319.359 297.332 319.359 296.996V285.764C319.359 285.428 319.527 285.26 319.863 285.26H321.903C322.239 285.26 322.407 285.428 322.407 285.764V286.556H322.503C322.855 285.692 323.639 285.26 324.855 285.26H325.623C328.135 285.26 329.391 286.564 329.391 289.172V296.996C329.391 297.332 329.215 297.5 328.863 297.5H326.847C326.511 297.5 326.343 297.332 326.343 296.996V289.316C326.343 288.804 326.231 288.444 326.007 288.236C325.799 288.012 325.439 287.9 324.927 287.9H324.063C322.959 287.9 322.407 288.508 322.407 289.724V296.996C322.407 297.332 322.239 297.5 321.903 297.5ZM332.186 287.9H331.226C331.034 287.9 330.898 287.868 330.818 287.804C330.754 287.74 330.722 287.612 330.722 287.42V285.764C330.722 285.428 330.89 285.26 331.226 285.26H332.186C332.362 285.26 332.45 285.172 332.45 284.996V282.716C332.45 282.38 332.626 282.212 332.978 282.212H334.994C335.33 282.212 335.498 282.38 335.498 282.716V284.996C335.498 285.172 335.594 285.26 335.786 285.26H337.658C337.994 285.26 338.162 285.428 338.162 285.764V287.42C338.162 287.596 338.122 287.724 338.042 287.804C337.978 287.868 337.85 287.9 337.658 287.9H335.786C335.594 287.9 335.498 287.988 335.498 288.164V293.468C335.498 293.964 335.61 294.324 335.834 294.548C336.058 294.756 336.426 294.86 336.938 294.86H337.898C338.234 294.86 338.402 295.028 338.402 295.364V297.02C338.402 297.196 338.362 297.324 338.282 297.404C338.218 297.468 338.09 297.5 337.898 297.5H336.434C335.17 297.5 334.186 297.164 333.482 296.492C332.794 295.82 332.45 294.86 332.45 293.612V288.164C332.45 287.988 332.362 287.9 332.186 287.9ZM345.015 297.5H340.455C340.135 297.5 339.975 297.332 339.975 296.996V295.46C339.975 295.284 340.007 295.164 340.071 295.1C340.135 295.02 340.263 294.98 340.455 294.98H344.463C345.247 294.98 345.639 294.74 345.639 294.26V294.14C345.639 293.756 345.311 293.388 344.655 293.036L342.279 291.716C341.463 291.3 340.863 290.852 340.479 290.372C340.095 289.892 339.903 289.276 339.903 288.524C339.903 287.404 340.199 286.58 340.791 286.052C341.383 285.524 342.311 285.26 343.575 285.26H347.583C347.903 285.26 348.063 285.428 348.063 285.764V287.324C348.063 287.5 348.031 287.628 347.967 287.708C347.903 287.772 347.775 287.804 347.583 287.804H344.247C343.463 287.804 343.071 288.004 343.071 288.404V288.524C343.071 288.876 343.415 289.236 344.103 289.604L346.527 291.044C347.359 291.492 347.943 291.956 348.279 292.436C348.615 292.9 348.783 293.516 348.783 294.284C348.783 296.428 347.527 297.5 345.015 297.5Z" fill="#FFDD00"/>
</svg>
