<svg width="358" height="315" viewBox="0 0 358 315" fill="none" xmlns="http://www.w3.org/2000/svg">
<rect x="1.5" y="1.5" width="355" height="312" rx="10.5" stroke="#FFDD00" stroke-width="3"/>
<path d="M142.696 31H135.28C135.12 31 135.04 30.904 135.04 30.712V15.856C135.04 15.664 135.12 15.568 135.28 15.568H142.696C142.888 15.568 142.984 15.656 142.984 15.832V16.384C142.984 16.56 142.888 16.648 142.696 16.648H136.48C136.32 16.648 136.24 16.72 136.24 16.864V22.384C136.24 22.528 136.32 22.6 136.48 22.6H142.024C142.2 22.6 142.288 22.688 142.288 22.864V23.416C142.288 23.592 142.2 23.68 142.024 23.68H136.48C136.32 23.68 136.24 23.752 136.24 23.896V29.704C136.24 29.848 136.32 29.92 136.48 29.92H142.696C142.888 29.92 142.984 30.008 142.984 30.184V30.736C142.984 30.912 142.888 31 142.696 31ZM146.211 31H145.323C145.115 31 145.075 30.904 145.203 30.712L148.683 24.76L145.371 19.048C145.243 18.856 145.283 18.76 145.491 18.76H146.355C146.531 18.76 146.667 18.856 146.763 19.048L149.475 23.944H149.571L152.163 19.048C152.275 18.856 152.411 18.76 152.571 18.76H153.435C153.643 18.76 153.683 18.856 153.555 19.048L150.315 24.712L153.843 30.712C153.955 30.904 153.915 31 153.723 31H152.763C152.635 31 152.523 30.904 152.427 30.712L149.571 25.576H149.475L146.619 30.712C146.507 30.904 146.371 31 146.211 31ZM160.925 31H159.389C158.349 31 157.525 30.696 156.917 30.088C156.325 29.48 156.029 28.648 156.029 27.592V22.168C156.029 21.112 156.325 20.28 156.917 19.672C157.525 19.064 158.349 18.76 159.389 18.76H164.477C164.637 18.76 164.717 18.856 164.717 19.048V30.712C164.717 30.904 164.637 31 164.477 31H163.781C163.605 31 163.517 30.904 163.517 30.712V29.752H163.421C163.005 30.584 162.173 31 160.925 31ZM163.517 27.568V20.056C163.517 19.912 163.437 19.84 163.277 19.84H159.485C158.749 19.84 158.189 20.048 157.805 20.464C157.421 20.88 157.229 21.464 157.229 22.216V27.544C157.229 28.296 157.421 28.88 157.805 29.296C158.189 29.712 158.749 29.92 159.485 29.92H161.045C161.813 29.92 162.413 29.72 162.845 29.32C163.293 28.904 163.517 28.32 163.517 27.568ZM169.252 31H168.556C168.396 31 168.316 30.904 168.316 30.712V19.048C168.316 18.856 168.396 18.76 168.556 18.76H169.252C169.428 18.76 169.516 18.856 169.516 19.048V20.008H169.612C170.076 19.176 170.924 18.76 172.156 18.76H173.14C174.548 18.76 175.524 19.32 176.068 20.44C176.308 19.88 176.716 19.464 177.292 19.192C177.868 18.904 178.46 18.76 179.068 18.76H179.956C180.996 18.76 181.812 19.064 182.404 19.672C182.996 20.28 183.292 21.112 183.292 22.168V30.712C183.292 30.904 183.204 31 183.028 31H182.332C182.156 31 182.068 30.904 182.068 30.712V22.216C182.068 21.448 181.876 20.864 181.492 20.464C181.108 20.048 180.548 19.84 179.812 19.84H178.924C178.156 19.84 177.548 20.064 177.1 20.512C176.652 20.944 176.428 21.536 176.428 22.288V30.712C176.428 30.904 176.34 31 176.164 31H175.468C175.292 31 175.204 30.904 175.204 30.712V22.216C175.204 21.448 175.012 20.864 174.628 20.464C174.244 20.048 173.684 19.84 172.948 19.84H171.988C171.22 19.84 170.612 20.048 170.164 20.464C169.732 20.864 169.516 21.44 169.516 22.192V30.712C169.516 30.904 169.428 31 169.252 31ZM187.697 34.576H187.001C186.841 34.576 186.761 34.488 186.761 34.312V19.048C186.761 18.856 186.841 18.76 187.001 18.76H187.697C187.873 18.76 187.961 18.856 187.961 19.048V20.008H188.057C188.505 19.176 189.337 18.76 190.553 18.76H192.185C193.209 18.76 194.017 19.064 194.609 19.672C195.201 20.28 195.497 21.112 195.497 22.168V27.592C195.497 28.648 195.201 29.48 194.609 30.088C194.017 30.696 193.209 31 192.185 31H190.553C189.337 31 188.505 30.584 188.057 29.752H187.961V34.312C187.961 34.488 187.873 34.576 187.697 34.576ZM190.433 29.92H192.017C192.753 29.92 193.313 29.72 193.697 29.32C194.097 28.904 194.297 28.312 194.297 27.544V22.216C194.297 21.448 194.097 20.864 193.697 20.464C193.313 20.048 192.753 19.84 192.017 19.84H190.433C189.665 19.84 189.057 20.048 188.609 20.464C188.177 20.864 187.961 21.44 187.961 22.192V27.568C187.961 28.32 188.177 28.904 188.609 29.32C189.057 29.72 189.665 29.92 190.433 29.92ZM199.911 31H199.215C199.055 31 198.975 30.904 198.975 30.712V14.416C198.975 14.224 199.055 14.128 199.215 14.128H199.911C200.087 14.128 200.175 14.224 200.175 14.416V30.712C200.175 30.904 200.087 31 199.911 31ZM212.03 31H207.014C205.974 31 205.15 30.696 204.542 30.088C203.95 29.48 203.654 28.648 203.654 27.592V22.168C203.654 21.112 203.95 20.28 204.542 19.672C205.15 19.064 205.974 18.76 207.014 18.76H209.078C210.118 18.76 210.942 19.064 211.55 19.672C212.158 20.28 212.462 21.112 212.462 22.168V25.216C212.462 25.408 212.366 25.504 212.174 25.504H205.07C204.926 25.504 204.854 25.576 204.854 25.72V27.568C204.854 28.32 205.046 28.904 205.43 29.32C205.814 29.72 206.374 29.92 207.11 29.92H212.03C212.206 29.92 212.294 30.008 212.294 30.184V30.736C212.294 30.912 212.206 31 212.03 31ZM205.07 24.544H211.046C211.19 24.544 211.262 24.472 211.262 24.328V22.192C211.262 21.44 211.07 20.864 210.686 20.464C210.302 20.048 209.742 19.84 209.006 19.84H207.11C206.374 19.84 205.814 20.048 205.43 20.464C205.046 20.864 204.854 21.44 204.854 22.192V24.328C204.854 24.472 204.926 24.544 205.07 24.544ZM219.666 31H215.49C215.314 31 215.226 30.912 215.226 30.736V30.184C215.226 30.024 215.314 29.944 215.49 29.944H219.546C220.986 29.944 221.706 29.384 221.706 28.264V27.688C221.706 26.648 221.258 25.968 220.362 25.648L217.362 24.496C216.546 24.176 215.962 23.8 215.61 23.368C215.274 22.936 215.106 22.336 215.106 21.568C215.106 19.696 216.138 18.76 218.202 18.76H222.09C222.266 18.76 222.354 18.848 222.354 19.024V19.576C222.354 19.736 222.266 19.816 222.09 19.816H218.322C217.666 19.816 217.17 19.96 216.834 20.248C216.514 20.536 216.354 20.872 216.354 21.256V21.808C216.354 22.256 216.474 22.608 216.714 22.864C216.97 23.12 217.354 23.336 217.866 23.512L220.866 24.712C221.698 24.984 222.25 25.392 222.522 25.936C222.81 26.464 222.954 27.208 222.954 28.168C222.954 29.128 222.682 29.84 222.138 30.304C221.61 30.768 220.786 31 219.666 31Z" fill="#FFDD00"/>
<rect x="33" y="56.5" width="72" height="72" rx="10.5" fill="#1C1F21" stroke="#FFDD00" stroke-width="3"/>
<circle cx="56.625" cy="80.125" r="9.375" fill="#FFDD00"/>
<circle cx="81.375" cy="105.125" r="9.375" fill="#FFDD00"/>
<path d="M54.9 157H54.204C54.028 157 53.94 156.904 53.94 156.712V142.864C53.94 142.72 53.86 142.648 53.7 142.648H50.22C50.028 142.648 49.932 142.56 49.932 142.384V141.832C49.932 141.656 50.028 141.568 50.22 141.568H58.86C59.052 141.568 59.148 141.656 59.148 141.832V142.384C59.148 142.56 59.052 142.648 58.86 142.648H55.38C55.22 142.648 55.14 142.72 55.14 142.864V156.712C55.14 156.904 55.06 157 54.9 157ZM64.7141 157H63.7541C63.5941 157 63.4901 156.904 63.4421 156.712L60.0821 145.048C60.0341 144.856 60.0981 144.76 60.2741 144.76H61.0421C61.2181 144.76 61.3221 144.856 61.3541 145.048L64.1861 155.488H64.3061L67.0901 145.048C67.1221 144.856 67.2341 144.76 67.4261 144.76H68.1221C68.3141 144.76 68.4261 144.856 68.4581 145.048L71.1941 155.488H71.3141L74.1701 145.048C74.2181 144.856 74.3221 144.76 74.4821 144.76H75.2501C75.4421 144.76 75.5061 144.856 75.4421 145.048L72.1061 156.712C72.0581 156.904 71.9461 157 71.7701 157H70.8101C70.6341 157 70.5221 156.904 70.4741 156.712L67.8101 146.584H67.6901L65.0501 156.712C65.0021 156.904 64.8901 157 64.7141 157ZM82.9449 157H80.8809C79.8409 157 79.0169 156.696 78.4089 156.088C77.8169 155.48 77.5209 154.648 77.5209 153.592V148.168C77.5209 147.112 77.8169 146.28 78.4089 145.672C79.0169 145.064 79.8409 144.76 80.8809 144.76H82.9449C83.9849 144.76 84.8089 145.064 85.4169 145.672C86.0249 146.28 86.3289 147.112 86.3289 148.168V153.592C86.3289 154.648 86.0249 155.48 85.4169 156.088C84.8089 156.696 83.9849 157 82.9449 157ZM80.9769 155.92H82.8489C83.5849 155.92 84.1449 155.72 84.5289 155.32C84.9289 154.904 85.1289 154.32 85.1289 153.568V148.192C85.1289 147.44 84.9289 146.864 84.5289 146.464C84.1449 146.048 83.5849 145.84 82.8489 145.84H80.9769C80.2409 145.84 79.6809 146.048 79.2969 146.464C78.9129 146.864 78.7209 147.44 78.7209 148.192V153.568C78.7209 154.32 78.9129 154.904 79.2969 155.32C79.6809 155.72 80.2409 155.92 80.9769 155.92Z" fill="#FFDD00"/>
<path d="M114.5 110H127M127 110H139.5M127 110V97.5M127 110V122.5" stroke="#FFDD00" stroke-width="2.5" stroke-linecap="round" stroke-linejoin="round"/>
<rect x="149" y="56.5" width="72" height="72" rx="10.5" fill="#1C1F21" stroke="#FFDD00" stroke-width="3"/>
<circle cx="172.625" cy="80.125" r="9.375" fill="#FFDD00"/>
<circle cx="172.625" cy="104.875" r="9.375" fill="#FFDD00"/>
<circle cx="197.375" cy="80.125" r="9.375" fill="#FFDD00"/>
<circle cx="197.375" cy="104.875" r="9.375" fill="#FFDD00"/>
<path d="M166.476 157H165.78C165.62 157 165.54 156.904 165.54 156.712V141.856C165.54 141.664 165.62 141.568 165.78 141.568H173.172C173.364 141.568 173.46 141.656 173.46 141.832V142.384C173.46 142.56 173.364 142.648 173.172 142.648H166.98C166.82 142.648 166.74 142.72 166.74 142.864V148.696C166.74 148.824 166.82 148.888 166.98 148.888H172.524C172.7 148.888 172.788 148.976 172.788 149.152V149.728C172.788 149.904 172.7 149.992 172.524 149.992H166.98C166.82 149.992 166.74 150.056 166.74 150.184V156.712C166.74 156.904 166.652 157 166.476 157ZM181.5 157H179.436C178.396 157 177.572 156.696 176.964 156.088C176.372 155.48 176.076 154.648 176.076 153.592V148.168C176.076 147.112 176.372 146.28 176.964 145.672C177.572 145.064 178.396 144.76 179.436 144.76H181.5C182.54 144.76 183.364 145.064 183.972 145.672C184.58 146.28 184.884 147.112 184.884 148.168V153.592C184.884 154.648 184.58 155.48 183.972 156.088C183.364 156.696 182.54 157 181.5 157ZM179.532 155.92H181.404C182.14 155.92 182.7 155.72 183.084 155.32C183.484 154.904 183.684 154.32 183.684 153.568V148.192C183.684 147.44 183.484 146.864 183.084 146.464C182.7 146.048 182.14 145.84 181.404 145.84H179.532C178.796 145.84 178.236 146.048 177.852 146.464C177.468 146.864 177.276 147.44 177.276 148.192V153.568C177.276 154.32 177.468 154.904 177.852 155.32C178.236 155.72 178.796 155.92 179.532 155.92ZM192.998 157H191.414C190.39 157 189.582 156.696 188.99 156.088C188.398 155.48 188.102 154.648 188.102 153.592V145.048C188.102 144.856 188.182 144.76 188.342 144.76H189.038C189.214 144.76 189.302 144.856 189.302 145.048V153.544C189.302 154.296 189.494 154.88 189.878 155.296C190.262 155.712 190.822 155.92 191.558 155.92H193.118C193.886 155.92 194.486 155.72 194.918 155.32C195.366 154.904 195.59 154.32 195.59 153.568V145.048C195.59 144.856 195.678 144.76 195.854 144.76H196.55C196.71 144.76 196.79 144.856 196.79 145.048V156.712C196.79 156.904 196.71 157 196.55 157H195.854C195.678 157 195.59 156.904 195.59 156.712V155.752H195.494C195.078 156.584 194.246 157 192.998 157ZM201.322 157H200.626C200.466 157 200.386 156.904 200.386 156.712V145.048C200.386 144.856 200.466 144.76 200.626 144.76H201.322C201.498 144.76 201.586 144.856 201.586 145.048V146.056H201.682C201.858 145.72 202.17 145.424 202.618 145.168C203.066 144.896 203.618 144.76 204.274 144.76H205.21C205.386 144.76 205.474 144.848 205.474 145.024V145.6C205.474 145.776 205.386 145.856 205.21 145.84H204.082C203.298 145.84 202.682 146.08 202.234 146.56C201.802 147.04 201.586 147.688 201.586 148.504V156.712C201.586 156.904 201.498 157 201.322 157Z" fill="#FFDD00"/>
<path d="M255.5 114C255.5 114.398 255.342 114.779 255.061 115.061C254.779 115.342 254.398 115.5 254 115.5H232C231.602 115.5 231.221 115.342 230.939 115.061C230.658 114.779 230.5 114.398 230.5 114C230.5 113.602 230.658 113.221 230.939 112.939C231.221 112.658 231.602 112.5 232 112.5H254C254.398 112.5 254.779 112.658 255.061 112.939C255.342 113.221 255.5 113.602 255.5 114ZM232 107.5H254C254.398 107.5 254.779 107.342 255.061 107.061C255.342 106.779 255.5 106.398 255.5 106C255.5 105.602 255.342 105.221 255.061 104.939C254.779 104.658 254.398 104.5 254 104.5H232C231.602 104.5 231.221 104.658 230.939 104.939C230.658 105.221 230.5 105.602 230.5 106C230.5 106.398 230.658 106.779 230.939 107.061C231.221 107.342 231.602 107.5 232 107.5Z" fill="#FFDD00"/>
<path d="M294.383 99.36H295.751C296.263 99.36 296.623 99.256 296.831 99.048C297.055 98.824 297.167 98.456 297.167 97.944V96.288C297.167 95.776 297.055 95.416 296.831 95.208C296.623 94.984 296.263 94.872 295.751 94.872H292.991V97.944C292.991 98.456 293.095 98.824 293.303 99.048C293.511 99.256 293.871 99.36 294.383 99.36ZM296.255 102H293.903C292.639 102 291.663 101.664 290.975 100.992C290.287 100.32 289.943 99.352 289.943 98.088V90.48C289.943 89.216 290.287 88.248 290.975 87.576C291.663 86.904 292.639 86.568 293.903 86.568H298.799C299.135 86.568 299.303 86.736 299.303 87.072V88.728C299.303 89.048 299.135 89.208 298.799 89.208H294.383C293.887 89.208 293.527 89.32 293.303 89.544C293.095 89.752 292.991 90.112 292.991 90.624V92.232H296.255C297.519 92.232 298.495 92.568 299.183 93.24C299.871 93.912 300.215 94.88 300.215 96.144V98.088C300.215 99.352 299.871 100.32 299.183 100.992C298.495 101.664 297.519 102 296.255 102ZM267.704 136.264H265.664C265.328 136.264 265.16 136.104 265.16 135.784V121.264C265.16 120.928 265.328 120.76 265.664 120.76H267.704C268.04 120.76 268.208 120.928 268.208 121.264V122.056H268.304C268.48 121.624 268.792 121.304 269.24 121.096C269.688 120.872 270.16 120.76 270.656 120.76H271.64C272.872 120.76 273.8 121.096 274.424 121.768C275.064 122.44 275.384 123.408 275.384 124.672V129.088C275.384 130.352 275.064 131.32 274.424 131.992C273.8 132.664 272.872 133 271.64 133H270.656C270.16 133 269.688 132.896 269.24 132.688C268.792 132.464 268.48 132.136 268.304 131.704H268.208V135.784C268.208 136.104 268.04 136.264 267.704 136.264ZM269.864 130.36H270.92C271.432 130.36 271.792 130.256 272 130.048C272.224 129.824 272.336 129.456 272.336 128.944V124.816C272.336 124.304 272.224 123.944 272 123.736C271.792 123.512 271.432 123.4 270.92 123.4H269.864C268.76 123.4 268.208 124.008 268.208 125.224V128.536C268.208 129.752 268.76 130.36 269.864 130.36ZM283.649 133H281.513C280.249 133 279.273 132.664 278.585 131.992C277.897 131.32 277.553 130.352 277.553 129.088V124.672C277.553 123.408 277.897 122.44 278.585 121.768C279.273 121.096 280.249 120.76 281.513 120.76H283.649C284.897 120.76 285.865 121.104 286.553 121.792C287.257 122.464 287.609 123.424 287.609 124.672V129.088C287.609 130.336 287.257 131.304 286.553 131.992C285.865 132.664 284.897 133 283.649 133ZM281.969 130.384H283.193C283.705 130.384 284.065 130.28 284.273 130.072C284.497 129.864 284.609 129.504 284.609 128.992V124.768C284.609 124.256 284.497 123.896 284.273 123.688C284.065 123.48 283.705 123.376 283.193 123.376H281.969C281.457 123.376 281.097 123.48 280.889 123.688C280.681 123.896 280.577 124.256 280.577 124.768V128.992C280.577 129.504 280.681 129.864 280.889 130.072C281.097 130.28 281.457 130.384 281.969 130.384ZM290.124 118.696V116.608C290.124 116.288 290.284 116.128 290.604 116.128H292.692C293.012 116.128 293.172 116.28 293.172 116.584V118.696C293.172 119.016 293.012 119.176 292.692 119.176H290.604C290.284 119.176 290.124 119.016 290.124 118.696ZM290.124 132.496V121.264C290.124 120.928 290.284 120.76 290.604 120.76H292.668C293.004 120.76 293.172 120.928 293.172 121.264V132.496C293.172 132.704 293.132 132.84 293.052 132.904C292.988 132.968 292.868 133 292.692 133H290.628C290.292 133 290.124 132.832 290.124 132.496ZM298.477 133H296.437C296.101 133 295.933 132.832 295.933 132.496V121.264C295.933 120.928 296.101 120.76 296.437 120.76H298.477C298.813 120.76 298.981 120.928 298.981 121.264V122.056H299.077C299.429 121.192 300.213 120.76 301.429 120.76H302.197C304.709 120.76 305.965 122.064 305.965 124.672V132.496C305.965 132.832 305.789 133 305.437 133H303.421C303.085 133 302.917 132.832 302.917 132.496V124.816C302.917 124.304 302.805 123.944 302.581 123.736C302.373 123.512 302.013 123.4 301.501 123.4H300.637C299.533 123.4 298.981 124.008 298.981 125.224V132.496C298.981 132.832 298.813 133 298.477 133ZM308.76 123.4H307.8C307.608 123.4 307.472 123.368 307.392 123.304C307.328 123.24 307.296 123.112 307.296 122.92V121.264C307.296 120.928 307.464 120.76 307.8 120.76H308.76C308.936 120.76 309.024 120.672 309.024 120.496V118.216C309.024 117.88 309.2 117.712 309.552 117.712H311.568C311.904 117.712 312.072 117.88 312.072 118.216V120.496C312.072 120.672 312.168 120.76 312.36 120.76H314.232C314.568 120.76 314.736 120.928 314.736 121.264V122.92C314.736 123.096 314.696 123.224 314.616 123.304C314.552 123.368 314.424 123.4 314.232 123.4H312.36C312.168 123.4 312.072 123.488 312.072 123.664V128.968C312.072 129.464 312.184 129.824 312.408 130.048C312.632 130.256 313 130.36 313.512 130.36H314.472C314.808 130.36 314.976 130.528 314.976 130.864V132.52C314.976 132.696 314.936 132.824 314.856 132.904C314.792 132.968 314.664 133 314.472 133H313.008C311.744 133 310.76 132.664 310.056 131.992C309.368 131.32 309.024 130.36 309.024 129.112V123.664C309.024 123.488 308.936 123.4 308.76 123.4ZM321.589 133H317.029C316.709 133 316.549 132.832 316.549 132.496V130.96C316.549 130.784 316.581 130.664 316.645 130.6C316.709 130.52 316.837 130.48 317.029 130.48H321.037C321.821 130.48 322.213 130.24 322.213 129.76V129.64C322.213 129.256 321.885 128.888 321.229 128.536L318.853 127.216C318.037 126.8 317.437 126.352 317.053 125.872C316.669 125.392 316.477 124.776 316.477 124.024C316.477 122.904 316.773 122.08 317.365 121.552C317.957 121.024 318.885 120.76 320.149 120.76H324.157C324.477 120.76 324.637 120.928 324.637 121.264V122.824C324.637 123 324.605 123.128 324.541 123.208C324.477 123.272 324.349 123.304 324.157 123.304H320.821C320.037 123.304 319.645 123.504 319.645 123.904V124.024C319.645 124.376 319.989 124.736 320.677 125.104L323.101 126.544C323.933 126.992 324.517 127.456 324.853 127.936C325.189 128.4 325.357 129.016 325.357 129.784C325.357 131.928 324.101 133 321.589 133Z" fill="#FFDD00"/>
<line x1="8" y1="179.5" x2="350" y2="179.5" stroke="#FFDD00" stroke-width="3"/>
<rect x="33" y="198.5" width="72" height="72" rx="10.5" fill="#1C1F21" stroke="#FFDD00" stroke-width="3"/>
<circle cx="49.875" cy="215.375" r="9.375" fill="#FFDD00"/>
<circle cx="87.375" cy="252.875" r="9.375" fill="#FFDD00"/>
<circle cx="68.625" cy="234.125" r="9.375" fill="#FFDD00"/>
<path d="M47.4 299H46.704C46.528 299 46.44 298.904 46.44 298.712V284.864C46.44 284.72 46.36 284.648 46.2 284.648H42.72C42.528 284.648 42.432 284.56 42.432 284.384V283.832C42.432 283.656 42.528 283.568 42.72 283.568H51.36C51.552 283.568 51.648 283.656 51.648 283.832V284.384C51.648 284.56 51.552 284.648 51.36 284.648H47.88C47.72 284.648 47.64 284.72 47.64 284.864V298.712C47.64 298.904 47.56 299 47.4 299ZM54.8141 299H54.1181C53.9581 299 53.8781 298.904 53.8781 298.712V282.416C53.8781 282.224 53.9581 282.128 54.1181 282.128H54.8141C54.9901 282.128 55.0781 282.224 55.0781 282.416V288.008H55.1741C55.6221 287.176 56.4541 286.76 57.6701 286.76H59.2541C60.2781 286.76 61.0861 287.064 61.6781 287.672C62.2701 288.28 62.5661 289.112 62.5661 290.168V298.712C62.5661 298.904 62.4861 299 62.3261 299H61.6301C61.4541 299 61.3661 298.904 61.3661 298.712V290.216C61.3661 289.464 61.1741 288.88 60.7901 288.464C60.4061 288.048 59.8461 287.84 59.1101 287.84H57.5501C56.7821 287.84 56.1741 288.048 55.7261 288.464C55.2941 288.864 55.0781 289.44 55.0781 290.192V298.712C55.0781 298.904 54.9901 299 54.8141 299ZM66.9782 299H66.2822C66.1222 299 66.0422 298.904 66.0422 298.712V287.048C66.0422 286.856 66.1222 286.76 66.2822 286.76H66.9782C67.1542 286.76 67.2422 286.856 67.2422 287.048V288.056H67.3382C67.5142 287.72 67.8262 287.424 68.2742 287.168C68.7222 286.896 69.2742 286.76 69.9302 286.76H70.8662C71.0422 286.76 71.1302 286.848 71.1302 287.024V287.6C71.1302 287.776 71.0422 287.856 70.8662 287.84H69.7382C68.9542 287.84 68.3382 288.08 67.8902 288.56C67.4582 289.04 67.2422 289.688 67.2422 290.504V298.712C67.2422 298.904 67.1542 299 66.9782 299ZM81.7016 299H76.6856C75.6456 299 74.8216 298.696 74.2136 298.088C73.6216 297.48 73.3256 296.648 73.3256 295.592V290.168C73.3256 289.112 73.6216 288.28 74.2136 287.672C74.8216 287.064 75.6456 286.76 76.6856 286.76H78.7496C79.7896 286.76 80.6136 287.064 81.2216 287.672C81.8296 288.28 82.1336 289.112 82.1336 290.168V293.216C82.1336 293.408 82.0376 293.504 81.8456 293.504H74.7416C74.5976 293.504 74.5256 293.576 74.5256 293.72V295.568C74.5256 296.32 74.7176 296.904 75.1016 297.32C75.4856 297.72 76.0456 297.92 76.7816 297.92H81.7016C81.8776 297.92 81.9656 298.008 81.9656 298.184V298.736C81.9656 298.912 81.8776 299 81.7016 299ZM74.7416 292.544H80.7176C80.8616 292.544 80.9336 292.472 80.9336 292.328V290.192C80.9336 289.44 80.7416 288.864 80.3576 288.464C79.9736 288.048 79.4136 287.84 78.6776 287.84H76.7816C76.0456 287.84 75.4856 288.048 75.1016 288.464C74.7176 288.864 74.5256 289.44 74.5256 290.192V292.328C74.5256 292.472 74.5976 292.544 74.7416 292.544ZM93.5141 299H88.4981C87.4581 299 86.6341 298.696 86.0261 298.088C85.4341 297.48 85.1381 296.648 85.1381 295.592V290.168C85.1381 289.112 85.4341 288.28 86.0261 287.672C86.6341 287.064 87.4581 286.76 88.4981 286.76H90.5621C91.6021 286.76 92.4261 287.064 93.0341 287.672C93.6421 288.28 93.9461 289.112 93.9461 290.168V293.216C93.9461 293.408 93.8501 293.504 93.6581 293.504H86.5541C86.4101 293.504 86.3381 293.576 86.3381 293.72V295.568C86.3381 296.32 86.5301 296.904 86.9141 297.32C87.2981 297.72 87.8581 297.92 88.5941 297.92H93.5141C93.6901 297.92 93.7781 298.008 93.7781 298.184V298.736C93.7781 298.912 93.6901 299 93.5141 299ZM86.5541 292.544H92.5301C92.6741 292.544 92.7461 292.472 92.7461 292.328V290.192C92.7461 289.44 92.5541 288.864 92.1701 288.464C91.7861 288.048 91.2261 287.84 90.4901 287.84H88.5941C87.8581 287.84 87.2981 288.048 86.9141 288.464C86.5301 288.864 86.3381 289.44 86.3381 290.192V292.328C86.3381 292.472 86.4101 292.544 86.5541 292.544Z" fill="#FFDD00"/>
<path d="M114.5 252H127M127 252H139.5M127 252V239.5M127 252V264.5" stroke="#FFDD00" stroke-width="2.5" stroke-linecap="round" stroke-linejoin="round"/>
<rect x="149" y="198.5" width="72" height="72" rx="10.5" fill="#1C1F21" stroke="#FFDD00" stroke-width="3"/>
<circle cx="172.625" cy="222.125" r="9.375" fill="#FFDD00"/>
<circle cx="172.625" cy="246.875" r="9.375" fill="#FFDD00"/>
<circle cx="197.375" cy="222.125" r="9.375" fill="#FFDD00"/>
<circle cx="197.375" cy="246.875" r="9.375" fill="#FFDD00"/>
<path d="M166.476 299H165.78C165.62 299 165.54 298.904 165.54 298.712V283.856C165.54 283.664 165.62 283.568 165.78 283.568H173.172C173.364 283.568 173.46 283.656 173.46 283.832V284.384C173.46 284.56 173.364 284.648 173.172 284.648H166.98C166.82 284.648 166.74 284.72 166.74 284.864V290.696C166.74 290.824 166.82 290.888 166.98 290.888H172.524C172.7 290.888 172.788 290.976 172.788 291.152V291.728C172.788 291.904 172.7 291.992 172.524 291.992H166.98C166.82 291.992 166.74 292.056 166.74 292.184V298.712C166.74 298.904 166.652 299 166.476 299ZM181.5 299H179.436C178.396 299 177.572 298.696 176.964 298.088C176.372 297.48 176.076 296.648 176.076 295.592V290.168C176.076 289.112 176.372 288.28 176.964 287.672C177.572 287.064 178.396 286.76 179.436 286.76H181.5C182.54 286.76 183.364 287.064 183.972 287.672C184.58 288.28 184.884 289.112 184.884 290.168V295.592C184.884 296.648 184.58 297.48 183.972 298.088C183.364 298.696 182.54 299 181.5 299ZM179.532 297.92H181.404C182.14 297.92 182.7 297.72 183.084 297.32C183.484 296.904 183.684 296.32 183.684 295.568V290.192C183.684 289.44 183.484 288.864 183.084 288.464C182.7 288.048 182.14 287.84 181.404 287.84H179.532C178.796 287.84 178.236 288.048 177.852 288.464C177.468 288.864 177.276 289.44 177.276 290.192V295.568C177.276 296.32 177.468 296.904 177.852 297.32C178.236 297.72 178.796 297.92 179.532 297.92ZM192.998 299H191.414C190.39 299 189.582 298.696 188.99 298.088C188.398 297.48 188.102 296.648 188.102 295.592V287.048C188.102 286.856 188.182 286.76 188.342 286.76H189.038C189.214 286.76 189.302 286.856 189.302 287.048V295.544C189.302 296.296 189.494 296.88 189.878 297.296C190.262 297.712 190.822 297.92 191.558 297.92H193.118C193.886 297.92 194.486 297.72 194.918 297.32C195.366 296.904 195.59 296.32 195.59 295.568V287.048C195.59 286.856 195.678 286.76 195.854 286.76H196.55C196.71 286.76 196.79 286.856 196.79 287.048V298.712C196.79 298.904 196.71 299 196.55 299H195.854C195.678 299 195.59 298.904 195.59 298.712V297.752H195.494C195.078 298.584 194.246 299 192.998 299ZM201.322 299H200.626C200.466 299 200.386 298.904 200.386 298.712V287.048C200.386 286.856 200.466 286.76 200.626 286.76H201.322C201.498 286.76 201.586 286.856 201.586 287.048V288.056H201.682C201.858 287.72 202.17 287.424 202.618 287.168C203.066 286.896 203.618 286.76 204.274 286.76H205.21C205.386 286.76 205.474 286.848 205.474 287.024V287.6C205.474 287.776 205.386 287.856 205.21 287.84H204.082C203.298 287.84 202.682 288.08 202.234 288.56C201.802 289.04 201.586 289.688 201.586 290.504V298.712C201.586 298.904 201.498 299 201.322 299Z" fill="#FFDD00"/>
<path d="M255.5 256C255.5 256.398 255.342 256.779 255.061 257.061C254.779 257.342 254.398 257.5 254 257.5H232C231.602 257.5 231.221 257.342 230.939 257.061C230.658 256.779 230.5 256.398 230.5 256C230.5 255.602 230.658 255.221 230.939 254.939C231.221 254.658 231.602 254.5 232 254.5H254C254.398 254.5 254.779 254.658 255.061 254.939C255.342 255.221 255.5 255.602 255.5 256ZM232 249.5H254C254.398 249.5 254.779 249.342 255.061 249.061C255.342 248.779 255.5 248.398 255.5 248C255.5 247.602 255.342 247.221 255.061 246.939C254.779 246.658 254.398 246.5 254 246.5H232C231.602 246.5 231.221 246.658 230.939 246.939C230.658 247.221 230.5 247.602 230.5 248C230.5 248.398 230.658 248.779 230.939 249.061C231.221 249.342 231.602 249.5 232 249.5Z" fill="#FFDD00"/>
<path d="M287.454 244H285.198C285.054 244 284.95 243.96 284.886 243.88C284.838 243.784 284.854 243.656 284.934 243.496L289.998 231.352H284.358C284.022 231.352 283.854 231.184 283.854 230.848V229.072C283.854 228.736 284.022 228.568 284.358 228.568H292.758C293.094 228.568 293.262 228.736 293.262 229.072V231.088C293.262 231.408 293.15 231.84 292.926 232.384L288.27 243.544C288.142 243.848 287.87 244 287.454 244ZM299.47 241.36H300.886C301.398 241.36 301.758 241.256 301.966 241.048C302.174 240.824 302.278 240.456 302.278 239.944V232.624C302.278 232.112 302.174 231.752 301.966 231.544C301.758 231.32 301.398 231.208 300.886 231.208H299.47C298.958 231.208 298.598 231.32 298.39 231.544C298.182 231.752 298.078 232.112 298.078 232.624V239.944C298.078 240.456 298.182 240.824 298.39 241.048C298.598 241.256 298.958 241.36 299.47 241.36ZM301.366 244H298.966C297.702 244 296.726 243.664 296.038 242.992C295.35 242.32 295.006 241.352 295.006 240.088V232.48C295.006 231.216 295.35 230.248 296.038 229.576C296.726 228.904 297.702 228.568 298.966 228.568H301.366C302.614 228.568 303.582 228.912 304.27 229.6C304.958 230.272 305.302 231.232 305.302 232.48V240.088C305.302 241.336 304.958 242.304 304.27 242.992C303.582 243.664 302.614 244 301.366 244ZM267.704 278.264H265.664C265.328 278.264 265.16 278.104 265.16 277.784V263.264C265.16 262.928 265.328 262.76 265.664 262.76H267.704C268.04 262.76 268.208 262.928 268.208 263.264V264.056H268.304C268.48 263.624 268.792 263.304 269.24 263.096C269.688 262.872 270.16 262.76 270.656 262.76H271.64C272.872 262.76 273.8 263.096 274.424 263.768C275.064 264.44 275.384 265.408 275.384 266.672V271.088C275.384 272.352 275.064 273.32 274.424 273.992C273.8 274.664 272.872 275 271.64 275H270.656C270.16 275 269.688 274.896 269.24 274.688C268.792 274.464 268.48 274.136 268.304 273.704H268.208V277.784C268.208 278.104 268.04 278.264 267.704 278.264ZM269.864 272.36H270.92C271.432 272.36 271.792 272.256 272 272.048C272.224 271.824 272.336 271.456 272.336 270.944V266.816C272.336 266.304 272.224 265.944 272 265.736C271.792 265.512 271.432 265.4 270.92 265.4H269.864C268.76 265.4 268.208 266.008 268.208 267.224V270.536C268.208 271.752 268.76 272.36 269.864 272.36ZM283.649 275H281.513C280.249 275 279.273 274.664 278.585 273.992C277.897 273.32 277.553 272.352 277.553 271.088V266.672C277.553 265.408 277.897 264.44 278.585 263.768C279.273 263.096 280.249 262.76 281.513 262.76H283.649C284.897 262.76 285.865 263.104 286.553 263.792C287.257 264.464 287.609 265.424 287.609 266.672V271.088C287.609 272.336 287.257 273.304 286.553 273.992C285.865 274.664 284.897 275 283.649 275ZM281.969 272.384H283.193C283.705 272.384 284.065 272.28 284.273 272.072C284.497 271.864 284.609 271.504 284.609 270.992V266.768C284.609 266.256 284.497 265.896 284.273 265.688C284.065 265.48 283.705 265.376 283.193 265.376H281.969C281.457 265.376 281.097 265.48 280.889 265.688C280.681 265.896 280.577 266.256 280.577 266.768V270.992C280.577 271.504 280.681 271.864 280.889 272.072C281.097 272.28 281.457 272.384 281.969 272.384ZM290.124 260.696V258.608C290.124 258.288 290.284 258.128 290.604 258.128H292.692C293.012 258.128 293.172 258.28 293.172 258.584V260.696C293.172 261.016 293.012 261.176 292.692 261.176H290.604C290.284 261.176 290.124 261.016 290.124 260.696ZM290.124 274.496V263.264C290.124 262.928 290.284 262.76 290.604 262.76H292.668C293.004 262.76 293.172 262.928 293.172 263.264V274.496C293.172 274.704 293.132 274.84 293.052 274.904C292.988 274.968 292.868 275 292.692 275H290.628C290.292 275 290.124 274.832 290.124 274.496ZM298.477 275H296.437C296.101 275 295.933 274.832 295.933 274.496V263.264C295.933 262.928 296.101 262.76 296.437 262.76H298.477C298.813 262.76 298.981 262.928 298.981 263.264V264.056H299.077C299.429 263.192 300.213 262.76 301.429 262.76H302.197C304.709 262.76 305.965 264.064 305.965 266.672V274.496C305.965 274.832 305.789 275 305.437 275H303.421C303.085 275 302.917 274.832 302.917 274.496V266.816C302.917 266.304 302.805 265.944 302.581 265.736C302.373 265.512 302.013 265.4 301.501 265.4H300.637C299.533 265.4 298.981 266.008 298.981 267.224V274.496C298.981 274.832 298.813 275 298.477 275ZM308.76 265.4H307.8C307.608 265.4 307.472 265.368 307.392 265.304C307.328 265.24 307.296 265.112 307.296 264.92V263.264C307.296 262.928 307.464 262.76 307.8 262.76H308.76C308.936 262.76 309.024 262.672 309.024 262.496V260.216C309.024 259.88 309.2 259.712 309.552 259.712H311.568C311.904 259.712 312.072 259.88 312.072 260.216V262.496C312.072 262.672 312.168 262.76 312.36 262.76H314.232C314.568 262.76 314.736 262.928 314.736 263.264V264.92C314.736 265.096 314.696 265.224 314.616 265.304C314.552 265.368 314.424 265.4 314.232 265.4H312.36C312.168 265.4 312.072 265.488 312.072 265.664V270.968C312.072 271.464 312.184 271.824 312.408 272.048C312.632 272.256 313 272.36 313.512 272.36H314.472C314.808 272.36 314.976 272.528 314.976 272.864V274.52C314.976 274.696 314.936 274.824 314.856 274.904C314.792 274.968 314.664 275 314.472 275H313.008C311.744 275 310.76 274.664 310.056 273.992C309.368 273.32 309.024 272.36 309.024 271.112V265.664C309.024 265.488 308.936 265.4 308.76 265.4ZM321.589 275H317.029C316.709 275 316.549 274.832 316.549 274.496V272.96C316.549 272.784 316.581 272.664 316.645 272.6C316.709 272.52 316.837 272.48 317.029 272.48H321.037C321.821 272.48 322.213 272.24 322.213 271.76V271.64C322.213 271.256 321.885 270.888 321.229 270.536L318.853 269.216C318.037 268.8 317.437 268.352 317.053 267.872C316.669 267.392 316.477 266.776 316.477 266.024C316.477 264.904 316.773 264.08 317.365 263.552C317.957 263.024 318.885 262.76 320.149 262.76H324.157C324.477 262.76 324.637 262.928 324.637 263.264V264.824C324.637 265 324.605 265.128 324.541 265.208C324.477 265.272 324.349 265.304 324.157 265.304H320.821C320.037 265.304 319.645 265.504 319.645 265.904V266.024C319.645 266.376 319.989 266.736 320.677 267.104L323.101 268.544C323.933 268.992 324.517 269.456 324.853 269.936C325.189 270.4 325.357 271.016 325.357 271.784C325.357 273.928 324.101 275 321.589 275Z" fill="#FFDD00"/>
</svg>
