<svg width="28" height="23" viewBox="0 0 28 23" fill="none" xmlns="http://www.w3.org/2000/svg">
<path d="M1.64062 9.39045H4.6875V17.3592H2.57812C2.39164 17.3592 2.2128 17.4333 2.08094 17.5651C1.94908 17.697 1.875 17.8758 1.875 18.0623C1.875 18.2488 1.94908 18.4277 2.08094 18.5595C2.2128 18.6914 2.39164 18.7655 2.57812 18.7655H25.0781C25.2646 18.7655 25.4434 18.6914 25.5753 18.5595C25.7072 18.4277 25.7812 18.2488 25.7812 18.0623C25.7812 17.8758 25.7072 17.697 25.5753 17.5651C25.4434 17.4333 25.2646 17.3592 25.0781 17.3592H22.9688V9.39045H26.0156C26.1687 9.39034 26.3175 9.34029 26.4395 9.2479C26.5615 9.15552 26.6501 9.02584 26.6917 8.87856C26.7333 8.73128 26.7258 8.57444 26.6702 8.43185C26.6146 8.28926 26.5139 8.16871 26.3836 8.0885L14.1961 0.5885C14.0854 0.520516 13.958 0.484528 13.8281 0.484528C13.6982 0.484528 13.5709 0.520516 13.4602 0.5885L1.27266 8.0885C1.14231 8.16871 1.04169 8.28926 0.986083 8.43185C0.930473 8.57444 0.922906 8.73128 0.964532 8.87856C1.00616 9.02584 1.0947 9.15552 1.21672 9.2479C1.33874 9.34029 1.48758 9.39034 1.64062 9.39045ZM6.09375 9.39045H10.3125V17.3592H6.09375V9.39045ZM15.9375 9.39045V17.3592H11.7188V9.39045H15.9375ZM21.5625 17.3592H17.3438V9.39045H21.5625V17.3592ZM13.8281 2.00764L23.5312 7.9842H4.125L13.8281 2.00764ZM27.6562 21.8123C27.6562 21.9988 27.5822 22.1777 27.4503 22.3095C27.3184 22.4414 27.1396 22.5155 26.9531 22.5155H0.703125C0.516645 22.5155 0.337802 22.4414 0.205941 22.3095C0.0740791 22.1777 0 21.9988 0 21.8123C0 21.6258 0.0740791 21.447 0.205941 21.3151C0.337802 21.1833 0.516645 21.1092 0.703125 21.1092H26.9531C27.1396 21.1092 27.3184 21.1833 27.4503 21.3151C27.5822 21.447 27.6562 21.6258 27.6562 21.8123Z" fill="#ce9124"/>
</svg>
