<svg width="16" height="19" viewBox="0 0 16 19" fill="none" xmlns="http://www.w3.org/2000/svg">
<path fill-rule="evenodd" clip-rule="evenodd" d="M15.5307 1.03512C15.7853 1.24734 15.9451 1.55196 15.9751 1.88199C16.0051 2.21203 15.9028 2.54047 15.6907 2.79512L10.1076 9.49512L15.6907 16.1951C15.8005 16.3206 15.884 16.4667 15.9365 16.6249C15.9889 16.7831 16.0092 16.9502 15.9961 17.1164C15.983 17.2825 15.9368 17.4444 15.8602 17.5925C15.7836 17.7405 15.6782 17.8717 15.5502 17.9784C15.4221 18.0851 15.274 18.1652 15.1146 18.2138C14.9552 18.2624 14.7876 18.2787 14.6218 18.2616C14.456 18.2445 14.2953 18.1944 14.1492 18.1143C14.003 18.0342 13.8743 17.9257 13.7707 17.7951L8.48074 11.4476L3.19137 17.7951C3.08714 17.9238 2.95838 18.0305 2.81256 18.109C2.66674 18.1875 2.50678 18.2363 2.34196 18.2525C2.17714 18.2686 2.01075 18.2519 1.85246 18.2032C1.69417 18.1545 1.54714 18.0748 1.41989 17.9688C1.29265 17.8628 1.18774 17.7326 1.11126 17.5857C1.03478 17.4388 0.988244 17.2782 0.974367 17.1132C0.96049 16.9481 0.979544 16.782 1.03042 16.6244C1.0813 16.4668 1.16299 16.3209 1.27074 16.1951L6.85387 9.49512L1.27074 2.79512C1.16299 2.66936 1.0813 2.52344 1.03042 2.36584C0.979544 2.20824 0.96049 2.0421 0.974367 1.87707C0.988244 1.71204 1.03478 1.55142 1.11126 1.40453C1.18774 1.25764 1.29265 1.12741 1.41989 1.02141C1.54714 0.915406 1.69417 0.835747 1.85246 0.787057C2.01075 0.738367 2.17714 0.721616 2.34196 0.737778C2.50678 0.753941 2.66674 0.802693 2.81256 0.881204C2.95838 0.959715 3.08714 1.06642 3.19137 1.19512L8.48074 7.54262L13.7707 1.19512C13.983 0.940593 14.2876 0.780761 14.6176 0.750757C14.9477 0.720754 15.2761 0.823036 15.5307 1.03512Z" fill="#CE9124"/>
</svg>
