<svg width="84" height="20" viewBox="0 0 84 20" fill="none" xmlns="http://www.w3.org/2000/svg">
<path d="M13.4062 3.33333H5.20833C4.6558 3.33333 4.12589 3.56746 3.73519 3.98421C3.34449 4.40096 3.125 4.96619 3.125 5.55556V12.2222C3.12404 12.5143 3.17727 12.8038 3.28162 13.0738C3.38598 13.3439 3.5394 13.5893 3.73305 13.7959C3.92669 14.0024 4.15674 14.1661 4.40994 14.2774C4.66313 14.3887 4.93448 14.4455 5.20833 14.4444H13.4062C13.9588 14.4444 14.4887 14.2103 14.8794 13.7936C15.2701 13.3768 15.4896 12.8116 15.4896 12.2222V5.55556C15.4879 4.96673 15.2679 4.40252 14.8776 3.98615C14.4872 3.56978 13.9583 3.33509 13.4062 3.33333ZM14.4479 12.2222C14.4479 12.5169 14.3382 12.7995 14.1428 13.0079C13.9475 13.2163 13.6825 13.3333 13.4062 13.3333H5.20833C5.07115 13.3348 4.93507 13.3071 4.80806 13.2518C4.68105 13.1965 4.56567 13.1147 4.46866 13.0112C4.37165 12.9077 4.29498 12.7847 4.24312 12.6492C4.19127 12.5137 4.16527 12.3685 4.16667 12.2222V5.55556C4.16667 5.26087 4.27641 4.97826 4.47176 4.76988C4.66711 4.56151 4.93207 4.44445 5.20833 4.44445H13.4062C13.6825 4.44445 13.9475 4.56151 14.1428 4.76988C14.3382 4.97826 14.4479 5.26087 14.4479 5.55556V12.2222Z" fill="url(#paint0_linear_1_172)"/>
<path d="M16.0104 0H2.60417C1.91409 0.00205242 1.25283 0.29537 0.764868 0.81586C0.276909 1.33635 0.00192414 2.0417 0 2.77778V15C0 15.7367 0.274367 16.4433 0.762743 16.9642C1.25112 17.4851 1.9135 17.7778 2.60417 17.7778V18.2C2.60417 18.642 2.76879 19.066 3.06181 19.3785C3.35484 19.6911 3.75227 19.8667 4.16667 19.8667H5.65625C6.07065 19.8667 6.46808 19.6911 6.7611 19.3785C7.05413 19.066 7.21875 18.642 7.21875 18.2V17.7778H11.3854V18.2C11.3854 18.642 11.55 19.066 11.8431 19.3785C12.1361 19.6911 12.5335 19.8667 12.9479 19.8667H14.4479C14.8623 19.8667 15.2597 19.6911 15.5528 19.3785C15.8458 19.066 16.0104 18.642 16.0104 18.2V17.7778C16.7011 17.7778 17.3635 17.4851 17.8518 16.9642C18.3402 16.4433 18.6146 15.7367 18.6146 15V2.77778C18.6127 2.0417 18.3377 1.33635 17.8497 0.81586C17.3618 0.29537 16.7005 0.00205242 16.0104 0ZM6.17708 18.2C6.17708 18.3473 6.12221 18.4887 6.02453 18.5928C5.92686 18.697 5.79438 18.7556 5.65625 18.7556H4.16667C4.02853 18.7556 3.89606 18.697 3.79838 18.5928C3.70071 18.4887 3.64583 18.3473 3.64583 18.2V17.7778H6.17708V18.2ZM14.9687 18.2C14.9687 18.3473 14.9139 18.4887 14.8162 18.5928C14.7185 18.697 14.586 18.7556 14.4479 18.7556H12.9531C12.8158 18.7527 12.6849 18.6933 12.5878 18.5897C12.4907 18.4861 12.435 18.3465 12.4323 18.2V17.7778H14.974L14.9687 18.2ZM17.5729 15C17.5729 15.442 17.4083 15.866 17.1153 16.1785C16.8222 16.4911 16.4248 16.6667 16.0104 16.6667H2.60417C2.18977 16.6667 1.79234 16.4911 1.49931 16.1785C1.20629 15.866 1.04167 15.442 1.04167 15V2.77778C1.04167 2.33575 1.20629 1.91183 1.49931 1.59927C1.79234 1.28671 2.18977 1.11111 2.60417 1.11111H16.0104C16.4248 1.11111 16.8222 1.28671 17.1153 1.59927C17.4083 1.91183 17.5729 2.33575 17.5729 2.77778V15Z" fill="url(#paint1_linear_1_172)"/>
<path d="M11.6667 8.33333H11.0312C10.9522 8.02592 10.7998 7.74559 10.589 7.5197C10.3781 7.29381 10.116 7.13007 9.82812 7.04444V6.36667C9.82677 6.29517 9.81222 6.22465 9.78531 6.15914C9.7584 6.09364 9.71966 6.03443 9.67129 5.98491C9.62293 5.93538 9.56589 5.8965 9.50343 5.87049C9.44097 5.84449 9.37432 5.83186 9.30729 5.83333C9.17269 5.83322 9.04328 5.88869 8.94618 5.98812C8.84908 6.08755 8.79184 6.22321 8.78646 6.36667V7.04444C8.49764 7.12923 8.23442 7.2926 8.0226 7.51855C7.81078 7.74449 7.65762 8.02526 7.57813 8.33333H6.94271C6.80822 8.33908 6.68103 8.40013 6.58782 8.50371C6.49461 8.60728 6.4426 8.74532 6.44271 8.88889C6.44133 8.96039 6.45316 9.03148 6.47755 9.0981C6.50193 9.16472 6.53838 9.22557 6.58481 9.27716C6.63124 9.32875 6.68675 9.37008 6.74816 9.39878C6.80957 9.42748 6.87567 9.443 6.94271 9.44445H7.57813C7.65762 9.75252 7.81078 10.0333 8.0226 10.2592C8.23442 10.4852 8.49764 10.6485 8.78646 10.7333V11.4222C8.79188 11.5647 8.84948 11.6992 8.94687 11.7968C9.04425 11.8945 9.17366 11.9475 9.30729 11.9444C9.37371 11.947 9.43994 11.9354 9.50216 11.9105C9.56438 11.8855 9.62134 11.8477 9.66977 11.7991C9.7182 11.7506 9.75712 11.6923 9.7843 11.6276C9.81148 11.5629 9.82638 11.4931 9.82812 11.4222V10.7333C10.1189 10.6527 10.3841 10.4907 10.5965 10.2641C10.809 10.0375 10.9608 9.75456 11.0365 9.44445H11.6719C11.7391 9.44374 11.8055 9.42872 11.8673 9.40028C11.929 9.37183 11.9848 9.33052 12.0314 9.27878C12.0779 9.22704 12.1143 9.1659 12.1385 9.09895C12.1626 9.032 12.174 8.96058 12.1719 8.88889C12.1733 8.81693 12.1612 8.74539 12.1365 8.67841C12.1118 8.61143 12.0749 8.55034 12.0279 8.49868C11.981 8.44701 11.9248 8.4058 11.8628 8.37742C11.8008 8.34904 11.7341 8.33405 11.6667 8.33333ZM9.30729 9.72222C9.15278 9.72222 9.00173 9.67335 8.87325 9.58178C8.74478 9.49021 8.64464 9.36006 8.58551 9.20779C8.52638 9.05552 8.51091 8.88796 8.54105 8.72631C8.5712 8.56466 8.64561 8.41618 8.75487 8.29963C8.86413 8.18309 9.00333 8.10372 9.15488 8.07157C9.30643 8.03941 9.46351 8.05592 9.60626 8.11899C9.74902 8.18206 9.87103 8.28887 9.95688 8.42591C10.0427 8.56295 10.0885 8.72407 10.0885 8.88889C10.0885 9.1099 10.0062 9.32187 9.85972 9.47815C9.71321 9.63443 9.51449 9.72222 9.30729 9.72222Z" fill="url(#paint2_linear_1_172)"/>
<path d="M30.4709 16.9333H28.0949C27.8229 16.9333 27.6549 16.7973 27.5909 16.5253L23.6069 1.95735C23.5109 1.65335 23.6309 1.50135 23.9669 1.50135H25.6709C25.9269 1.50135 26.0789 1.63735 26.1269 1.90935L29.2229 14.4373H29.3189L32.3909 1.90935C32.4549 1.63735 32.6149 1.50135 32.8709 1.50135H34.5509C34.8869 1.50135 35.0149 1.65335 34.9349 1.95735L30.9269 16.5253C30.8629 16.7973 30.7109 16.9333 30.4709 16.9333ZM37.9996 16.9333H36.2716C36.0476 16.9333 35.9676 16.7973 36.0316 16.5253L40.2076 1.90935C40.2876 1.63735 40.4796 1.50135 40.7836 1.50135H43.1836C43.5036 1.50135 43.6956 1.63735 43.7596 1.90935L47.9356 16.5253C47.9996 16.7973 47.9116 16.9333 47.6716 16.9333H45.9676C45.8236 16.9333 45.7196 16.9093 45.6556 16.8613C45.6076 16.7973 45.5676 16.6853 45.5356 16.5253L44.6236 13.4053H39.3436L38.4316 16.5253C38.3676 16.7973 38.2236 16.9333 37.9996 16.9333ZM41.9356 3.80535L39.8236 11.4853H44.1676L42.0316 3.80535H41.9356ZM58.372 1.50135H59.884C60.172 1.50135 60.316 1.62935 60.316 1.88535V13.2133C60.316 14.3813 59.98 15.2933 59.308 15.9493C58.652 16.6053 57.74 16.9333 56.572 16.9333H53.908C52.74 16.9333 51.828 16.6053 51.172 15.9493C50.516 15.2933 50.188 14.3813 50.188 13.2133V1.90935C50.188 1.63735 50.324 1.50135 50.596 1.50135H52.108C52.38 1.50135 52.516 1.63735 52.516 1.90935V13.1173C52.516 14.3013 53.092 14.8933 54.244 14.8933H56.212C57.38 14.8933 57.964 14.3013 57.964 13.1173V1.90935C57.964 1.63735 58.1 1.50135 58.372 1.50135ZM71.8514 16.9333H64.0754C63.8034 16.9333 63.6674 16.7973 63.6674 16.5253V1.90935C63.6674 1.63735 63.8034 1.50135 64.0754 1.50135H65.5874C65.8594 1.50135 65.9954 1.63735 65.9954 1.90935V14.6053C65.9954 14.7653 66.0914 14.8453 66.2834 14.8453H71.8514C72.1234 14.8453 72.2594 14.9893 72.2594 15.2773V16.5253C72.2594 16.7973 72.1234 16.9333 71.8514 16.9333ZM78.6961 16.9333H77.1841C76.8961 16.9333 76.7521 16.7973 76.7521 16.5253V3.78135C76.7521 3.62135 76.6721 3.54135 76.5121 3.54135H73.4881C73.2001 3.54135 73.0561 3.40535 73.0561 3.13335V1.90935C73.0561 1.63735 73.2001 1.50135 73.4881 1.50135H82.3921C82.6801 1.50135 82.8241 1.63735 82.8241 1.90935V3.13335C82.8241 3.40535 82.6801 3.54135 82.3921 3.54135H79.3681C79.1921 3.54135 79.1041 3.62135 79.1041 3.78135V16.5253C79.1041 16.7973 78.9681 16.9333 78.6961 16.9333Z" fill="url(#paint3_linear_1_172)"/>
<defs>
<linearGradient id="paint0_linear_1_172" x1="9.30729" y1="0" x2="9.30729" y2="19.8667" gradientUnits="userSpaceOnUse">
<stop stop-color="white"/>
<stop offset="0.05" stop-color="#F3CE75"/>
<stop offset="0.8" stop-color="#B98903"/>
<stop offset="1" stop-color="#5C1A09"/>
</linearGradient>
<linearGradient id="paint1_linear_1_172" x1="9.30729" y1="0" x2="9.30729" y2="19.8667" gradientUnits="userSpaceOnUse">
<stop stop-color="white"/>
<stop offset="0.05" stop-color="#F3CE75"/>
<stop offset="0.8" stop-color="#B98903"/>
<stop offset="1" stop-color="#5C1A09"/>
</linearGradient>
<linearGradient id="paint2_linear_1_172" x1="9.30729" y1="0" x2="9.30729" y2="19.8667" gradientUnits="userSpaceOnUse">
<stop stop-color="white"/>
<stop offset="0.05" stop-color="#F3CE75"/>
<stop offset="0.8" stop-color="#B98903"/>
<stop offset="1" stop-color="#5C1A09"/>
</linearGradient>
<linearGradient id="paint3_linear_1_172" x1="53.1146" y1="3.93335" x2="53.1146" y2="15.9333" gradientUnits="userSpaceOnUse">
<stop stop-color="white"/>
<stop offset="0.05" stop-color="#F3CE75"/>
<stop offset="0.8" stop-color="#B98903"/>
<stop offset="1" stop-color="#5C1A09"/>
</linearGradient>
</defs>
</svg>
