<svg width="16" height="16" viewBox="0 0 16 16" fill="none" xmlns="http://www.w3.org/2000/svg">
<path d="M15.4723 9.4881C15.3623 10.7026 14.9264 11.8699 14.2064 12.8784C13.4864 13.8868 12.5064 14.7027 11.3601 15.2479C10.2137 15.7931 8.93949 16.0493 7.65924 15.9922C6.379 15.935 5.1356 15.5663 4.04802 14.9214C2.96895 14.2762 2.07822 13.3827 1.4581 12.3236C0.837981 11.2645 0.508471 10.0738 0.5 8.86152C0.5 8.74283 0.549576 8.62899 0.637823 8.54506C0.72607 8.46112 0.845759 8.41397 0.970559 8.41397C1.09536 8.41397 1.21505 8.46112 1.3033 8.54506C1.39154 8.62899 1.44112 8.74283 1.44112 8.86152C1.44085 10.0061 1.77133 11.1287 2.39647 12.1067C3.02161 13.0847 3.91735 13.8805 4.98582 14.4071C6.05428 14.9336 7.25437 15.1708 8.45495 15.0926C9.65553 15.0144 10.8104 14.6238 11.7934 13.9636C12.7257 13.3365 13.4696 12.4888 13.9518 11.5044C14.4339 10.5199 14.6375 9.43284 14.5425 8.3506C14.4474 7.26836 14.057 6.22847 13.4098 5.33376C12.7626 4.43905 11.881 3.72052 10.8523 3.24923C9.46785 2.72025 7.97191 2.50867 6.48552 2.6316V3.9295C6.48511 4.0134 6.45992 4.09551 6.41281 4.16644C6.3657 4.23738 6.29858 4.2943 6.2191 4.33069C6.13962 4.36709 6.05098 4.38151 5.9633 4.37229C5.87562 4.36308 5.79242 4.33061 5.72321 4.27859L3.39771 2.53314C3.34103 2.49131 3.29516 2.4377 3.26361 2.37642C3.23205 2.31514 3.21565 2.24781 3.21565 2.17958C3.21565 2.11134 3.23205 2.04401 3.26361 1.98273C3.29516 1.92145 3.34103 1.86785 3.39771 1.82601L5.74203 0.0895107C5.81194 0.0396412 5.89507 0.00927287 5.98211 0.00180862C6.06914 -0.00565564 6.15665 0.0100792 6.23481 0.0472496C6.31297 0.0844201 6.37871 0.141558 6.42465 0.21226C6.47059 0.282962 6.49493 0.364436 6.49493 0.447552V1.7365C7.16312 1.72755 7.84073 1.70965 8.49951 1.7544C9.49414 1.8193 10.4652 2.07179 11.3563 2.49715C12.2473 2.92252 13.0404 3.51226 13.6895 4.23202C14.3385 4.95179 14.8305 5.78719 15.1367 6.68957C15.4429 7.59195 15.5573 8.54326 15.4732 9.4881H15.4723Z" fill="black"/>
</svg>
