<svg width="15" height="16" viewBox="0 0 15 16" fill="none" xmlns="http://www.w3.org/2000/svg">
<path d="M14.9723 9.4881C14.8623 10.7026 14.4264 11.8699 13.7064 12.8784C12.9864 13.8868 12.0064 14.7027 10.8601 15.2479C9.71374 15.7931 8.43949 16.0493 7.15924 15.9922C5.879 15.935 4.6356 15.5663 3.54802 14.9214C2.46895 14.2762 1.57822 13.3827 0.958099 12.3236C0.337981 11.2645 0.00847058 10.0738 0 8.86152C0 8.74283 0.0495763 8.62899 0.137823 8.54506C0.22607 8.46112 0.345759 8.41397 0.470559 8.41397C0.59536 8.41397 0.715048 8.46112 0.803295 8.54506C0.891542 8.62899 0.941119 8.74283 0.941119 8.86152C0.940847 10.0061 1.27133 11.1287 1.89647 12.1067C2.52161 13.0847 3.41735 13.8805 4.48582 14.4071C5.55428 14.9336 6.75437 15.1708 7.95495 15.0926C9.15553 15.0144 10.3104 14.6238 11.2934 13.9636C12.2257 13.3365 12.9696 12.4888 13.4518 11.5044C13.9339 10.5199 14.1375 9.43284 14.0425 8.3506C13.9474 7.26836 13.557 6.22847 12.9098 5.33376C12.2626 4.43905 11.381 3.72052 10.3523 3.24923C8.96785 2.72025 7.47191 2.50867 5.98552 2.6316V3.9295C5.98511 4.0134 5.95992 4.09551 5.91281 4.16644C5.8657 4.23738 5.79858 4.2943 5.7191 4.33069C5.63962 4.36709 5.55098 4.38151 5.4633 4.37229C5.37562 4.36308 5.29242 4.33061 5.22321 4.27859L2.89771 2.53314C2.84103 2.49131 2.79516 2.4377 2.76361 2.37642C2.73205 2.31514 2.71565 2.24781 2.71565 2.17958C2.71565 2.11134 2.73205 2.04401 2.76361 1.98273C2.79516 1.92145 2.84103 1.86785 2.89771 1.82601L5.24203 0.0895107C5.31194 0.0396412 5.39507 0.00927287 5.48211 0.00180862C5.56914 -0.00565564 5.65665 0.0100792 5.73481 0.0472496C5.81297 0.0844201 5.87871 0.141558 5.92465 0.21226C5.97059 0.282962 5.99493 0.364436 5.99493 0.447552V1.7365C6.66312 1.72755 7.34073 1.70965 7.99951 1.7544C8.99414 1.8193 9.96525 2.07179 10.8563 2.49715C11.7473 2.92252 12.5404 3.51226 13.1895 4.23202C13.8385 4.95179 14.3305 5.78719 14.6367 6.68957C14.9429 7.59195 15.0573 8.54326 14.9732 9.4881H14.9723Z" fill="#FFDD00"/>
</svg>
