<svg width="30" height="31" viewBox="0 0 30 31" fill="none" xmlns="http://www.w3.org/2000/svg">
<path d="M19.9188 8.07501H10.0813C9.41827 8.07501 8.78239 8.3384 8.31355 8.80725C7.84471 9.27609 7.58131 9.91197 7.58131 10.575V18.075C7.58016 18.4036 7.64403 18.7293 7.76926 19.0331C7.89449 19.3369 8.07859 19.613 8.31097 19.8454C8.54335 20.0777 8.8194 20.2618 9.12324 20.3871C9.42708 20.5123 9.75269 20.5762 10.0813 20.575H19.9188C20.5819 20.575 21.2177 20.3116 21.6866 19.8428C22.1554 19.3739 22.4188 18.7381 22.4188 18.075V10.575C22.4168 9.91258 22.1528 9.27784 21.6844 8.80943C21.216 8.34102 20.5812 8.07699 19.9188 8.07501ZM21.1688 18.075C21.1688 18.4065 21.0371 18.7245 20.8027 18.9589C20.5683 19.1933 20.2503 19.325 19.9188 19.325H10.0813C9.9167 19.3267 9.7534 19.2955 9.60099 19.2333C9.44858 19.171 9.31011 19.079 9.19371 18.9626C9.0773 18.8462 8.98529 18.7077 8.92306 18.5553C8.86083 18.4029 8.82964 18.2396 8.83131 18.075V10.575C8.83131 10.2435 8.96301 9.92555 9.19743 9.69113C9.43185 9.45671 9.74979 9.32501 10.0813 9.32501H19.9188C20.2503 9.32501 20.5683 9.45671 20.8027 9.69113C21.0371 9.92555 21.1688 10.2435 21.1688 10.575V18.075Z" fill="#CE9124"/>
<path d="M23.0438 4.32501H6.9563C6.12821 4.32732 5.33469 4.6573 4.74914 5.24285C4.16359 5.82841 3.83361 6.62192 3.8313 7.45001V21.2C3.8313 22.0288 4.16054 22.8237 4.74659 23.4097C5.33264 23.9958 6.1275 24.325 6.9563 24.325V24.8C6.9563 25.2973 7.15384 25.7742 7.50547 26.1258C7.8571 26.4775 8.33402 26.675 8.8313 26.675H10.6188C11.1161 26.675 11.593 26.4775 11.9446 26.1258C12.2963 25.7742 12.4938 25.2973 12.4938 24.8V24.325H17.4938V24.8C17.4938 25.2973 17.6913 25.7742 18.043 26.1258C18.3946 26.4775 18.8715 26.675 19.3688 26.675H21.1688C21.6661 26.675 22.143 26.4775 22.4946 26.1258C22.8463 25.7742 23.0438 25.2973 23.0438 24.8V24.325C23.8726 24.325 24.6675 23.9958 25.2535 23.4097C25.8396 22.8237 26.1688 22.0288 26.1688 21.2V7.45001C26.1665 6.62192 25.8365 5.82841 25.251 5.24285C24.6654 4.6573 23.8719 4.32732 23.0438 4.32501ZM11.2438 24.8C11.2438 24.9658 11.178 25.1247 11.0607 25.242C10.9435 25.3592 10.7846 25.425 10.6188 25.425H8.8313C8.66554 25.425 8.50657 25.3592 8.38936 25.242C8.27215 25.1247 8.2063 24.9658 8.2063 24.8V24.325H11.2438V24.8ZM21.7938 24.8C21.7938 24.9658 21.7279 25.1247 21.6107 25.242C21.4935 25.3592 21.3346 25.425 21.1688 25.425H19.375C19.2103 25.4218 19.0532 25.3549 18.9366 25.2384C18.8201 25.1219 18.7532 24.9648 18.75 24.8V24.325H21.8L21.7938 24.8ZM24.9188 21.2C24.9188 21.6973 24.7213 22.1742 24.3696 22.5258C24.018 22.8775 23.5411 23.075 23.0438 23.075H6.9563C6.45902 23.075 5.9821 22.8775 5.63047 22.5258C5.27884 22.1742 5.0813 21.6973 5.0813 21.2V7.45001C5.0813 6.95273 5.27884 6.47582 5.63047 6.12419C5.9821 5.77256 6.45902 5.57501 6.9563 5.57501H23.0438C23.5411 5.57501 24.018 5.77256 24.3696 6.12419C24.7213 6.47582 24.9188 6.95273 24.9188 7.45001V21.2Z" fill="#CE9124"/>
<path d="M17.8311 13.7H17.0686C16.9738 13.3541 16.791 13.0388 16.5379 12.7847C16.2849 12.5305 15.9703 12.3463 15.6249 12.25V11.4875C15.6233 11.407 15.6058 11.3277 15.5735 11.254C15.5412 11.1803 15.4947 11.1137 15.4367 11.058C15.3786 11.0023 15.3102 10.9586 15.2353 10.9293C15.1603 10.9 15.0803 10.8858 14.9999 10.8875C14.8384 10.8874 14.6831 10.9498 14.5666 11.0616C14.45 11.1735 14.3813 11.3261 14.3749 11.4875V12.25C14.0283 12.3454 13.7124 12.5292 13.4583 12.7834C13.2041 13.0375 13.0203 13.3534 12.9249 13.7H12.1624C12.001 13.7065 11.8484 13.7751 11.7365 13.8917C11.6247 14.0082 11.5623 14.1635 11.5624 14.325C11.5607 14.4054 11.5749 14.4854 11.6042 14.5604C11.6334 14.6353 11.6772 14.7038 11.7329 14.7618C11.7886 14.8198 11.8552 14.8663 11.9289 14.8986C12.0026 14.9309 12.0819 14.9484 12.1624 14.95H12.9249C13.0203 15.2966 13.2041 15.6124 13.4583 15.8666C13.7124 16.1208 14.0283 16.3046 14.3749 16.4V17.175C14.3814 17.3352 14.4505 17.4866 14.5674 17.5964C14.6842 17.7063 14.8395 17.7659 14.9999 17.7625C15.0796 17.7653 15.1591 17.7523 15.2337 17.7243C15.3084 17.6962 15.3767 17.6537 15.4349 17.599C15.493 17.5444 15.5397 17.4788 15.5723 17.406C15.6049 17.3332 15.6228 17.2547 15.6249 17.175V16.4C15.9738 16.3092 16.2921 16.127 16.547 15.8721C16.8019 15.6172 16.9841 15.2989 17.0749 14.95H17.8374C17.9181 14.9492 17.9978 14.9323 18.0719 14.9003C18.1459 14.8683 18.2129 14.8218 18.2688 14.7636C18.3247 14.7054 18.3683 14.6366 18.3973 14.5613C18.4263 14.486 18.4399 14.4056 18.4374 14.325C18.439 14.244 18.4246 14.1635 18.395 14.0882C18.3653 14.0128 18.321 13.9441 18.2647 13.886C18.2083 13.8279 18.1409 13.7815 18.0665 13.7496C17.9921 13.7177 17.9121 13.7008 17.8311 13.7ZM14.9999 15.2625C14.8145 15.2625 14.6332 15.2075 14.479 15.1045C14.3249 15.0015 14.2047 14.8551 14.1337 14.6838C14.0628 14.5124 14.0442 14.3239 14.0804 14.1421C14.1166 13.9602 14.2059 13.7932 14.337 13.6621C14.4681 13.531 14.6351 13.4417 14.817 13.4055C14.9988 13.3693 15.1873 13.3879 15.3587 13.4589C15.53 13.5298 15.6764 13.65 15.7794 13.8041C15.8824 13.9583 15.9374 14.1396 15.9374 14.325C15.9374 14.5736 15.8386 14.8121 15.6628 14.9879C15.487 15.1637 15.2485 15.2625 14.9999 15.2625Z" fill="#CE9124"/>
</svg>
