<svg width="20" height="20" viewBox="0 0 20 20" fill="none" xmlns="http://www.w3.org/2000/svg">
<path d="M14.099 3.40002H5.90109C5.34856 3.40002 4.81866 3.63415 4.42796 4.0509C4.03726 4.46765 3.81776 5.03288 3.81776 5.62225V12.2889C3.8168 12.581 3.87003 12.8705 3.97438 13.1405C4.07874 13.4106 4.23216 13.656 4.42581 13.8626C4.61946 14.0691 4.8495 14.2328 5.1027 14.3441C5.3559 14.4554 5.62724 14.5122 5.90109 14.5111H14.099C14.6515 14.5111 15.1814 14.277 15.5722 13.8603C15.9629 13.4435 16.1823 12.8783 16.1823 12.2889V5.62225C16.1807 5.03342 15.9607 4.46921 15.5703 4.05284C15.18 3.63647 14.651 3.40178 14.099 3.40002ZM15.1407 12.2889C15.1407 12.5836 15.0309 12.8662 14.8356 13.0746C14.6402 13.283 14.3753 13.4 14.099 13.4H5.90109C5.76391 13.4015 5.62783 13.3738 5.50082 13.3185C5.37381 13.2632 5.25843 13.1814 5.16142 13.0779C5.06441 12.9744 4.98774 12.8513 4.93588 12.7159C4.88403 12.5804 4.85804 12.4352 4.85943 12.2889V5.62225C4.85943 5.32756 4.96917 5.04495 5.16453 4.83657C5.35988 4.6282 5.62483 4.51114 5.90109 4.51114H14.099C14.3753 4.51114 14.6402 4.6282 14.8356 4.83657C15.0309 5.04495 15.1407 5.32756 15.1407 5.62225V12.2889Z" fill="#1C1F21"/>
<path d="M16.7032 0.0666504H3.29692C2.60684 0.0687028 1.94558 0.36202 1.45762 0.88251C0.969658 1.403 0.694673 2.10835 0.692749 2.84443V15.0667C0.692749 15.8034 0.967116 16.5099 1.45549 17.0308C1.94387 17.5518 2.60625 17.8444 3.29692 17.8444V18.2667C3.29692 18.7087 3.46154 19.1326 3.75456 19.4452C4.04759 19.7577 4.44501 19.9333 4.85942 19.9333H6.349C6.7634 19.9333 7.16083 19.7577 7.45385 19.4452C7.74688 19.1326 7.9115 18.7087 7.9115 18.2667V17.8444H12.0782V18.2667C12.0782 18.7087 12.2428 19.1326 12.5358 19.4452C12.8288 19.7577 13.2263 19.9333 13.6407 19.9333H15.1407C15.5551 19.9333 15.9525 19.7577 16.2455 19.4452C16.5385 19.1326 16.7032 18.7087 16.7032 18.2667V17.8444C17.3938 17.8444 18.0562 17.5518 18.5446 17.0308C19.033 16.5099 19.3073 15.8034 19.3073 15.0667V2.84443C19.3054 2.10835 19.0304 1.403 18.5425 0.88251C18.0545 0.36202 17.3932 0.0687028 16.7032 0.0666504ZM6.86983 18.2667C6.86983 18.414 6.81496 18.5553 6.71728 18.6595C6.61961 18.7637 6.48713 18.8222 6.349 18.8222H4.85942C4.72128 18.8222 4.58881 18.7637 4.49113 18.6595C4.39346 18.5553 4.33858 18.414 4.33858 18.2667V17.8444H6.86983V18.2667ZM15.6615 18.2667C15.6615 18.414 15.6066 18.5553 15.5089 18.6595C15.4113 18.7637 15.2788 18.8222 15.1407 18.8222H13.6459C13.5086 18.8194 13.3776 18.7599 13.2805 18.6563C13.1834 18.5528 13.1277 18.4131 13.125 18.2667V17.8444H15.6667L15.6615 18.2667ZM18.2657 15.0667C18.2657 15.5087 18.101 15.9326 17.808 16.2452C17.515 16.5577 17.1176 16.7333 16.7032 16.7333H3.29692C2.88251 16.7333 2.48509 16.5577 2.19206 16.2452C1.89904 15.9326 1.73442 15.5087 1.73442 15.0667V2.84443C1.73442 2.4024 1.89904 1.97848 2.19206 1.66592C2.48509 1.35336 2.88251 1.17776 3.29692 1.17776H16.7032C17.1176 1.17776 17.515 1.35336 17.808 1.66592C18.101 1.97848 18.2657 2.4024 18.2657 2.84443V15.0667Z" fill="#1C1F21"/>
<path d="M12.3593 8.40002H11.7239C11.6449 8.0926 11.4925 7.81227 11.2816 7.58639C11.0708 7.3605 10.8086 7.19675 10.5208 7.11113V6.43335C10.5194 6.36185 10.5049 6.29133 10.478 6.22583C10.4511 6.16032 10.4123 6.10112 10.3639 6.05159C10.3156 6.00206 10.2585 5.96319 10.1961 5.93718C10.1336 5.91117 10.067 5.89854 9.99995 5.90002C9.86535 5.8999 9.73593 5.95537 9.63883 6.0548C9.54174 6.15423 9.4845 6.28989 9.47911 6.43335V7.11113C9.19029 7.19592 8.92707 7.35929 8.71525 7.58523C8.50343 7.81117 8.35027 8.09194 8.27078 8.40002H7.63536C7.50087 8.40576 7.37369 8.46682 7.28047 8.57039C7.18726 8.67396 7.13525 8.812 7.13536 8.95557C7.13398 9.02707 7.14582 9.09817 7.1702 9.16479C7.19458 9.23141 7.23103 9.29225 7.27746 9.34384C7.32389 9.39543 7.3794 9.43676 7.44081 9.46546C7.50222 9.49417 7.56833 9.50968 7.63536 9.51113H8.27078C8.35027 9.81921 8.50343 10.1 8.71525 10.3259C8.92707 10.5519 9.19029 10.7152 9.47911 10.8V11.4889C9.48454 11.6314 9.54213 11.7659 9.63952 11.8635C9.73691 11.9612 9.86632 12.0142 9.99995 12.0111C10.0664 12.0136 10.1326 12.0021 10.1948 11.9772C10.257 11.9522 10.314 11.9144 10.3624 11.8658C10.4109 11.8173 10.4498 11.759 10.477 11.6943C10.5041 11.6296 10.519 11.5598 10.5208 11.4889V10.8C10.8115 10.7193 11.0768 10.5574 11.2892 10.3308C11.5016 10.1042 11.6535 9.82124 11.7291 9.51113H12.3645C12.4318 9.51042 12.4982 9.49541 12.5599 9.46696C12.6217 9.43851 12.6774 9.39721 12.724 9.34546C12.7706 9.29372 12.807 9.23258 12.8311 9.16563C12.8553 9.09868 12.8666 9.02727 12.8645 8.95557C12.8659 8.88361 12.8539 8.81207 12.8292 8.74509C12.8045 8.67811 12.7676 8.61703 12.7206 8.56536C12.6736 8.5137 12.6175 8.47248 12.5555 8.4441C12.4935 8.41572 12.4268 8.40074 12.3593 8.40002ZM9.99995 9.78891C9.84543 9.78891 9.69438 9.74003 9.56591 9.64846C9.43743 9.5569 9.3373 9.42675 9.27817 9.27448C9.21903 9.1222 9.20356 8.95465 9.23371 8.793C9.26385 8.63135 9.33826 8.48286 9.44752 8.36632C9.55678 8.24977 9.69598 8.17041 9.84753 8.13825C9.99908 8.1061 10.1562 8.1226 10.2989 8.18567C10.4417 8.24875 10.5637 8.35556 10.6495 8.4926C10.7354 8.62964 10.7812 8.79076 10.7812 8.95557C10.7812 9.17659 10.6989 9.38855 10.5524 9.54483C10.4059 9.70111 10.2071 9.78891 9.99995 9.78891Z" fill="#1C1F21"/>
</svg>
